font.ufo
<glyph name="numbersign" format="2">
  <advance width="722"/>
  <unicode hex="0023"/>
  <guideline x="81" y="360" angle="82.093"/>
  <guideline x="647" y="360" angle="82.093"/>
  <outline>
    <contour>
      <point x="115" y="0" type="line"/>
      <point x="241" y="0" type="line"/>
      <point x="354" y="730" type="line"/>
      <point x="228" y="730" type="line"/>
    </contour>
    <contour>
      <point x="368" y="0" type="line"/>
      <point x="495" y="0" type="line"/>
      <point x="608" y="730" type="line"/>
      <point x="481" y="730" type="line"/>
    </contour>
    <contour>
      <point x="33" y="185" type="line"/>
      <point x="650" y="185" type="line"/>
      <point x="650" y="291" type="line"/>
      <point x="33" y="291" type="line"/>
    </contour>
    <contour>
      <point x="72" y="439" type="line"/>
      <point x="689" y="439" type="line"/>
      <point x="689" y="545" type="line"/>
      <point x="72" y="545" type="line"/>
    </contour>
  </outline>
</glyph>
<glyph name="dollar" format="2">
  <advance width="651"/>
  <unicode hex="0024"/>
  <outline>
    <contour>
      <point x="328" y="-4" type="curve" smooth="yes"/>
      <point x="512" y="-4"/>
      <point x="616" y="73"/>
      <point x="616" y="211" type="curve" smooth="yes"/>
      <point x="616" y="344"/>
      <point x="512" y="417"/>
      <point x="353" y="431" type="curve" smooth="yes"/>
      <point x="302" y="435" type="line" smooth="yes"/>
      <point x="231" y="442"/>
      <point x="202" y="479"/>
      <point x="202" y="521" type="curve" smooth="yes"/>
      <point x="202" y="571"/>
      <point x="243" y="603"/>
      <point x="314" y="603" type="curve" smooth="yes"/>
      <point x="392" y="603"/>
      <point x="433" y="557"/>
      <point x="433" y="501" type="curve"/>
      <point x="580" y="501" type="line"/>
      <point x="580" y="646"/>
      <point x="486" y="730"/>
      <point x="314" y="730" type="curve" smooth="yes"/>
      <point x="153" y="730"/>
      <point x="55" y="659"/>
      <point x="55" y="521" type="curve" smooth="yes"/>
      <point x="55" y="388"/>
      <point x="146" y="315"/>
      <point x="288" y="302" type="curve" smooth="yes"/>
      <point x="339" y="298" type="line" smooth="yes"/>
      <point x="429" y="289"/>
      <point x="469" y="258"/>
      <point x="469" y="211" type="curve" smooth="yes"/>
      <point x="469" y="157"/>
      <point x="418" y="122"/>
      <point x="328" y="122" type="curve" smooth="yes"/>
      <point x="225" y="122"/>
      <point x="180" y="171"/>
      <point x="180" y="229" type="curve"/>
      <point x="34" y="229" type="line"/>
      <point x="34" y="85"/>
      <point x="132" y="-4"/>
    </contour>
    <contour>
      <point x="257" y="-129" type="line"/>
      <point x="388" y="-129" type="line"/>
      <point x="388" y="17" type="line"/>
      <point x="257" y="17" type="line"/>
    </contour>
    <contour>
      <point x="253" y="681" type="line"/>
      <point x="384" y="681" type="line"/>
      <point x="384" y="827" type="line"/>
      <point x="253" y="827" type="line"/>
    </contour>
  </outline>
</glyph>
<glyph name="ampersand" format="2">
  <advance width="730"/>
  <unicode hex="0026"/>
  <outline>
    <contour>
      <point x="532" y="0" type="line"/>
      <point x="709" y="0" type="line"/>
      <point x="347" y="390" type="line" smooth="yes"/>
      <point x="297" y="445"/>
      <point x="276" y="483"/>
      <point x="276" y="529" type="curve" smooth="yes"/>
      <point x="276" y="579"/>
      <point x="297" y="608"/>
      <point x="375" y="608" type="curve" smooth="yes"/>
      <point x="412" y="608"/>
      <point x="488" y="602"/>
      <point x="529" y="596" type="curve"/>
      <point x="529" y="728" type="line"/>
      <point x="489" y="734"/>
      <point x="435" y="739"/>
      <point x="386" y="739" type="curve" smooth="yes"/>
      <point x="206" y="739"/>
      <point x="129" y="660"/>
      <point x="129" y="537" type="curve" smooth="yes"/>
      <point x="129" y="454"/>
      <point x="161" y="401"/>
      <point x="253" y="301" type="curve" smooth="yes"/>
    </contour>
    <contour>
      <point x="293" y="-21" type="curve" smooth="yes"/>
      <point x="489" y="-21"/>
      <point x="656" y="133"/>
      <point x="656" y="414" type="curve"/>
      <point x="516" y="414" type="line"/>
      <point x="516" y="199"/>
      <point x="417" y="110"/>
      <point x="302" y="110" type="curve" smooth="yes"/>
      <point x="214" y="110"/>
      <point x="170" y="162"/>
      <point x="170" y="234" type="curve" smooth="yes"/>
      <point x="170" y="294"/>
      <point x="199" y="340"/>
      <point x="235" y="364" type="curve"/>
      <point x="170" y="448" type="line"/>
      <point x="83" y="408"/>
      <point x="23" y="328"/>
      <point x="23" y="232" type="curve" smooth="yes"/>
      <point x="23" y="218" type="line" smooth="yes"/>
      <point x="23" y="83"/>
      <point x="131" y="-21"/>
    </contour>
    <contour>
      <point x="422" y="394" type="line"/>
      <point x="706" y="394" type="line"/>
      <point x="706" y="510" type="line"/>
      <point x="422" y="510" type="line"/>
    </contour>
  </outline>
</glyph>
<glyph name="parenleft" format="2">
  <advance width="392"/>
  <unicode hex="0028"/>
  <guideline y="-182"/>
  <outline>
    <contour>
      <point x="204" y="-182" type="curve"/>
      <point x="385" y="-182" type="line"/>
      <point x="258" y="-44"/>
      <point x="206" y="109"/>
      <point x="206" y="302" type="curve" smooth="yes"/>
      <point x="206" y="498"/>
      <point x="283" y="645"/>
      <point x="385" y="776" type="curve"/>
      <point x="208" y="776" type="line"/>
      <point x="114" y="661"/>
      <point x="48" y="521"/>
      <point x="48" y="302" type="curve" smooth="yes"/>
      <point x="48" y="85"/>
      <point x="109" y="-61"/>
    </contour>
  </outline>
</glyph>
<glyph name="plus" format="2">
  <advance width="596"/>
  <unicode hex="002B"/>
  <outline>
    <contour>
      <point x="227" y="93" type="line"/>
      <point x="369" y="93" type="line"/>
      <point x="369" y="595" type="line"/>
      <point x="227" y="595" type="line"/>
    </contour>
    <contour>
      <point x="50" y="279" type="line"/>
      <point x="546" y="279" type="line"/>
      <point x="546" y="409" type="line"/>
      <point x="50" y="409" type="line"/>
    </contour>
  </outline>
</glyph>
<glyph name="hyphen" format="2">
  <advance width="508"/>
  <unicode hex="002D"/>
  <outline>
    <contour>
      <point x="44" y="212" type="line"/>
      <point x="465" y="212" type="line"/>
      <point x="465" y="353" type="line"/>
      <point x="44" y="353" type="line"/>
    </contour>
  </outline>
</glyph>
<glyph name="slash" format="2">
  <advance width="407"/>
  <unicode hex="002F"/>
  <outline>
    <contour>
      <point x="18" y="-60" type="line"/>
      <point x="181" y="-60" type="line"/>
      <point x="388" y="780" type="line"/>
      <point x="225" y="780" type="line"/>
    </contour>
  </outline>
</glyph>
<glyph name="zero" format="2">
  <advance width="762"/>
  <unicode hex="0030"/>
  <outline>
    <contour>
      <point x="382" y="-19" type="curve" smooth="yes"/>
      <point x="613" y="-19"/>
      <point x="705" y="146"/>
      <point x="705" y="337" type="curve" smooth="yes"/>
      <point x="705" y="393" type="line" smooth="yes"/>
      <point x="705" y="593"/>
      <point x="603" y="751"/>
      <point x="382" y="751" type="curve" smooth="yes"/>
      <point x="159" y="751"/>
      <point x="57" y="593"/>
      <point x="57" y="393" type="curve" smooth="yes"/>
      <point x="57" y="337" type="line" smooth="yes"/>
      <point x="57" y="146"/>
      <point x="149" y="-19"/>
    </contour>
    <contour>
      <point x="382" y="131" type="curve" smooth="yes"/>
      <point x="272" y="131"/>
      <point x="221" y="205"/>
      <point x="221" y="366" type="curve" smooth="yes"/>
      <point x="221" y="532"/>
      <point x="274" y="601"/>
      <point x="382" y="601" type="curve" smooth="yes"/>
      <point x="488" y="601"/>
      <point x="542" y="532"/>
      <point x="542" y="364" type="curve" smooth="yes"/>
      <point x="542" y="205"/>
      <point x="490" y="131"/>
    </contour>
  </outline>
</glyph>
<glyph name="two" format="2">
  <advance width="631"/>
  <unicode hex="0032"/>
  <outline>
    <contour>
      <point x="60" y="0" type="line"/>
      <point x="580" y="0" type="line"/>
      <point x="580" y="140" type="line"/>
      <point x="181" y="140" type="line"/>
      <point x="220" y="107" type="line"/>
      <point x="220" y="158" type="line" smooth="yes"/>
      <point x="220" y="189"/>
      <point x="235" y="206"/>
      <point x="275" y="223" type="curve" smooth="yes"/>
      <point x="392" y="274" type="line" smooth="yes"/>
      <point x="520" y="329"/>
      <point x="580" y="397"/>
      <point x="580" y="509" type="curve" smooth="yes"/>
      <point x="580" y="521" type="line" smooth="yes"/>
      <point x="580" y="649"/>
      <point x="487" y="751"/>
      <point x="315" y="751" type="curve" smooth="yes"/>
      <point x="140" y="751"/>
      <point x="50" y="646"/>
      <point x="50" y="508" type="curve"/>
      <point x="208" y="508" type="line"/>
      <point x="208" y="574"/>
      <point x="246" y="615"/>
      <point x="315" y="615" type="curve" smooth="yes"/>
      <point x="384" y="615"/>
      <point x="422" y="574"/>
      <point x="422" y="515" type="curve" smooth="yes"/>
      <point x="422" y="457"/>
      <point x="392" y="422"/>
      <point x="333" y="397" type="curve" smooth="yes"/>
      <point x="215" y="346" type="line" smooth="yes"/>
      <point x="103" y="297"/>
      <point x="60" y="243"/>
      <point x="60" y="150" type="curve" smooth="yes"/>
    </contour>
  </outline>
</glyph>
<glyph name="three" format="2">
  <advance width="632"/>
  <unicode hex="0033"/>
  <outline>
    <contour>
      <point x="309" y="-19" type="curve" smooth="yes"/>
      <point x="481" y="-19"/>
      <point x="585" y="82"/>
      <point x="585" y="214" type="curve" smooth="yes"/>
      <point x="585" y="227" type="line" smooth="yes"/>
      <point x="585" y="361"/>
      <point x="480" y="450"/>
      <point x="312" y="450" type="curve" smooth="yes"/>
      <point x="278" y="450"/>
      <point x="247" y="446"/>
      <point x="221" y="438" type="curve"/>
      <point x="301" y="416" type="line"/>
      <point x="556" y="578" type="line"/>
      <point x="556" y="730" type="line"/>
      <point x="64" y="730" type="line"/>
      <point x="64" y="590" type="line"/>
      <point x="357" y="590" type="line"/>
      <point x="367" y="573" type="line"/>
      <point x="145" y="429" type="line"/>
      <point x="219" y="304" type="line"/>
      <point x="240" y="322"/>
      <point x="270" y="335"/>
      <point x="310" y="335" type="curve" smooth="yes"/>
      <point x="384" y="335"/>
      <point x="427" y="288"/>
      <point x="427" y="225" type="curve" smooth="yes"/>
      <point x="427" y="161"/>
      <point x="384" y="117"/>
      <point x="309" y="117" type="curve" smooth="yes"/>
      <point x="236" y="117"/>
      <point x="192" y="158"/>
      <point x="192" y="220" type="curve"/>
      <point x="34" y="220" type="line"/>
      <point x="34" y="84"/>
      <point x="139" y="-19"/>
    </contour>
  </outline>
</glyph>
<glyph name="four" format="2">
  <advance width="672"/>
  <unicode hex="0034"/>
  <outline>
    <contour>
      <point x="33" y="140" type="line"/>
      <point x="650" y="140" type="line"/>
      <point x="650" y="270" type="line"/>
      <point x="213" y="270" type="line"/>
      <point x="200" y="291" type="line"/>
      <point x="437" y="668" type="line"/>
      <point x="310" y="751" type="line"/>
      <point x="33" y="311" type="line"/>
    </contour>
    <contour>
      <point x="416" y="0" type="line"/>
      <point x="567" y="0" type="line"/>
      <point x="567" y="526" type="line"/>
      <point x="416" y="526" type="line"/>
    </contour>
  </outline>
</glyph>
<glyph name="five" format="2">
  <advance width="644"/>
  <unicode hex="0035"/>
  <outline>
    <contour>
      <point x="326" y="-19" type="curve" smooth="yes"/>
      <point x="509" y="-19"/>
      <point x="610" y="102"/>
      <point x="610" y="236" type="curve" smooth="yes"/>
      <point x="610" y="249" type="line" smooth="yes"/>
      <point x="610" y="383"/>
      <point x="514" y="489"/>
      <point x="356" y="489" type="curve" smooth="yes"/>
      <point x="263" y="489"/>
      <point x="212" y="453"/>
      <point x="172" y="405" type="curve"/>
      <point x="210" y="395" type="line"/>
      <point x="232" y="632" type="line"/>
      <point x="169" y="590" type="line"/>
      <point x="547" y="590" type="line"/>
      <point x="547" y="730" type="line"/>
      <point x="104" y="730" type="line"/>
      <point x="67" y="318" type="line"/>
      <point x="220" y="318" type="line"/>
      <point x="240" y="349"/>
      <point x="281" y="371"/>
      <point x="329" y="371" type="curve" smooth="yes"/>
      <point x="407" y="371"/>
      <point x="452" y="315"/>
      <point x="452" y="243" type="curve" smooth="yes"/>
      <point x="452" y="169"/>
      <point x="406" y="117"/>
      <point x="327" y="117" type="curve" smooth="yes"/>
      <point x="254" y="117"/>
      <point x="204" y="162"/>
      <point x="204" y="230" type="curve"/>
      <point x="46" y="230" type="line"/>
      <point x="46" y="93"/>
      <point x="152" y="-19"/>
    </contour>
  </outline>
</glyph>
<glyph name="six" format="2">
  <advance width="687"/>
  <unicode hex="0036"/>
  <outline>
    <contour>
      <point x="359" y="-21" type="curve" smooth="yes"/>
      <point x="535" y="-21"/>
      <point x="649" y="84"/>
      <point x="649" y="242" type="curve" smooth="yes"/>
      <point x="649" y="390"/>
      <point x="555" y="488"/>
      <point x="400" y="488" type="curve" smooth="yes"/>
      <point x="265" y="488"/>
      <point x="171" y="411"/>
      <point x="169" y="262" type="curve"/>
      <point x="205" y="286" type="line"/>
      <point x="205" y="362" type="line" smooth="yes"/>
      <point x="205" y="519"/>
      <point x="253" y="599"/>
      <point x="415" y="599" type="curve" smooth="yes"/>
      <point x="468" y="599"/>
      <point x="519" y="595"/>
      <point x="563" y="591" type="curve"/>
      <point x="563" y="728" type="line"/>
      <point x="519" y="733"/>
      <point x="470" y="736"/>
      <point x="420" y="736" type="curve" smooth="yes"/>
      <point x="180" y="736"/>
      <point x="54" y="612"/>
      <point x="54" y="369" type="curve" smooth="yes"/>
      <point x="54" y="327" type="line" smooth="yes"/>
      <point x="54" y="134"/>
      <point x="142" y="-21"/>
    </contour>
    <contour>
      <point x="354" y="115" type="curve" smooth="yes"/>
      <point x="263" y="115"/>
      <point x="215" y="167"/>
      <point x="215" y="239" type="curve" smooth="yes"/>
      <point x="215" y="322"/>
      <point x="280" y="363"/>
      <point x="358" y="363" type="curve" smooth="yes"/>
      <point x="442" y="363"/>
      <point x="492" y="313"/>
      <point x="492" y="239" type="curve" smooth="yes"/>
      <point x="492" y="164"/>
      <point x="442" y="115"/>
    </contour>
  </outline>
</glyph>
<glyph name="equal" format="2">
  <advance width="590"/>
  <unicode hex="003D"/>
  <outline>
    <contour>
      <point x="50" y="373" type="line"/>
      <point x="540" y="373" type="line"/>
      <point x="540" y="502" type="line"/>
      <point x="50" y="502" type="line"/>
    </contour>
    <contour>
      <point x="50" y="158" type="line"/>
      <point x="540" y="158" type="line"/>
      <point x="540" y="287" type="line"/>
      <point x="50" y="287" type="line"/>
    </contour>
  </outline>
</glyph>
<glyph name="greater" format="2">
  <advance width="596"/>
  <unicode hex="003E"/>
  <outline>
    <contour>
      <point x="70" y="80" type="line"/>
      <point x="526" y="225" type="line"/>
      <point x="526" y="354" type="line"/>
      <point x="70" y="215" type="line"/>
    </contour>
    <contour>
      <point x="526" y="300" type="line"/>
      <point x="526" y="431" type="line"/>
      <point x="70" y="577" type="line"/>
      <point x="70" y="439" type="line"/>
    </contour>
    <contour>
      <point x="411" y="289" type="line"/>
      <point x="441" y="289" type="line"/>
      <point x="441" y="371" type="line"/>
      <point x="411" y="371" type="line"/>
    </contour>
  </outline>
</glyph>
<glyph name="question" format="2">
  <advance width="562"/>
  <unicode hex="003F"/>
  <outline>
    <contour>
      <point x="178" y="245" type="line"/>
      <point x="336" y="245" type="line"/>
      <point x="338" y="355" type="line"/>
      <point x="270" y="300" type="line"/>
      <point x="435" y="305"/>
      <point x="529" y="390"/>
      <point x="529" y="518" type="curve" smooth="yes"/>
      <point x="529" y="530" type="line" smooth="yes"/>
      <point x="529" y="659"/>
      <point x="435" y="751"/>
      <point x="284" y="751" type="curve" smooth="yes"/>
      <point x="119" y="751"/>
      <point x="27" y="646"/>
      <point x="27" y="515" type="curve"/>
      <point x="180" y="515" type="line"/>
      <point x="180" y="570"/>
      <point x="216" y="614"/>
      <point x="279" y="614" type="curve" smooth="yes"/>
      <point x="340" y="614"/>
      <point x="376" y="575"/>
      <point x="376" y="517" type="curve" smooth="yes"/>
      <point x="376" y="462"/>
      <point x="342" y="419"/>
      <point x="271" y="419" type="curve" smooth="yes"/>
      <point x="178" y="419" type="line"/>
    </contour>
    <contour>
      <point x="166" y="0" type="line"/>
      <point x="348" y="0" type="line"/>
      <point x="348" y="161" type="line"/>
      <point x="166" y="161" type="line"/>
    </contour>
  </outline>
</glyph>
<glyph name="at" format="2">
  <advance width="1127"/>
  <unicode hex="0040"/>
  <outline>
    <contour>
      <point x="566" y="-246" type="curve" smooth="yes"/>
      <point x="610" y="-246"/>
      <point x="662" y="-241"/>
      <point x="701" y="-233" type="curve"/>
      <point x="701" y="-113" type="line"/>
      <point x="661" y="-121"/>
      <point x="610" y="-127"/>
      <point x="566" y="-127" type="curve" smooth="yes"/>
      <point x="336" y="-127"/>
      <point x="174" y="17"/>
      <point x="174" y="250" type="curve" smooth="yes"/>
      <point x="174" y="485"/>
      <point x="324" y="633"/>
      <point x="572" y="633" type="curve" smooth="yes"/>
      <point x="773" y="633"/>
      <point x="947" y="529"/>
      <point x="947" y="295" type="curve" smooth="yes"/>
      <point x="947" y="184"/>
      <point x="912" y="115"/>
      <point x="854" y="115" type="curve" smooth="yes"/>
      <point x="821" y="115"/>
      <point x="804" y="137"/>
      <point x="804" y="178" type="curve" smooth="yes"/>
      <point x="804" y="474" type="line"/>
      <point x="690" y="474" type="line"/>
      <point x="690" y="283" type="line"/>
      <point x="711" y="283" type="line"/>
      <point x="705" y="412"/>
      <point x="627" y="493"/>
      <point x="509" y="493" type="curve" smooth="yes"/>
      <point x="386" y="493"/>
      <point x="294" y="403"/>
      <point x="294" y="260" type="curve" smooth="yes"/>
      <point x="294" y="244" type="line" smooth="yes"/>
      <point x="294" y="100"/>
      <point x="389" y="5"/>
      <point x="514" y="5" type="curve" smooth="yes"/>
      <point x="627" y="5"/>
      <point x="704" y="81"/>
      <point x="710" y="224" type="curve"/>
      <point x="678" y="224" type="line"/>
      <point x="678" y="169" type="line" smooth="yes"/>
      <point x="678" y="64"/>
      <point x="742" y="-1"/>
      <point x="845" y="-1" type="curve" smooth="yes"/>
      <point x="989" y="-1"/>
      <point x="1071" y="125"/>
      <point x="1071" y="299" type="curve" smooth="yes"/>
      <point x="1071" y="592"/>
      <point x="844" y="750"/>
      <point x="571" y="750" type="curve" smooth="yes"/>
      <point x="253" y="750"/>
      <point x="50" y="549"/>
      <point x="50" y="251" type="curve" smooth="yes"/>
      <point x="50" y="-54"/>
      <point x="269" y="-246"/>
    </contour>
    <contour>
      <point x="543" y="121" type="curve" smooth="yes"/>
      <point x="472" y="121"/>
      <point x="429" y="177"/>
      <point x="429" y="252" type="curve" smooth="yes"/>
      <point x="429" y="326"/>
      <point x="473" y="377"/>
      <point x="543" y="377" type="curve" smooth="yes"/>
      <point x="606" y="377"/>
      <point x="657" y="336"/>
      <point x="657" y="265" type="curve" smooth="yes"/>
      <point x="657" y="245" type="line" smooth="yes"/>
      <point x="657" y="166"/>
      <point x="607" y="121"/>
    </contour>
  </outline>
</glyph>
<glyph name="A" format="2">
  <advance width="781"/>
  <unicode hex="0041"/>
  <anchor x="733" y="10" name="ogonek"/>
  <anchor x="387" y="730" name="top"/>
  <outline>
    <contour>
      <point x="13" y="0" type="line"/>
      <point x="177" y="0" type="line"/>
      <point x="373" y="617" type="line"/>
      <point x="320" y="596" type="line"/>
      <point x="449" y="596" type="line"/>
      <point x="397" y="617" type="line"/>
      <point x="599" y="0" type="line"/>
      <point x="768" y="0" type="line"/>
      <point x="519" y="730" type="line"/>
      <point x="255" y="730" type="line"/>
    </contour>
    <contour>
      <point x="195" y="182" type="line"/>
      <point x="582" y="182" type="line"/>
      <point x="532" y="317" type="line"/>
      <point x="246" y="317" type="line"/>
    </contour>
  </outline>
</glyph>
<glyph name="B" format="2">
  <advance width="692"/>
  <unicode hex="0042"/>
  <outline>
    <contour>
      <point x="221" y="-5" type="line"/>
      <point x="385" y="-5" type="line" smooth="yes"/>
      <point x="555" y="-5"/>
      <point x="646" y="70"/>
      <point x="646" y="202" type="curve" smooth="yes"/>
      <point x="646" y="216" type="line" smooth="yes"/>
      <point x="646" y="355"/>
      <point x="536" y="404"/>
      <point x="385" y="404" type="curve" smooth="yes"/>
      <point x="221" y="404" type="line"/>
      <point x="221" y="306" type="line"/>
      <point x="393" y="306" type="line" smooth="yes"/>
      <point x="455" y="306"/>
      <point x="485" y="274"/>
      <point x="485" y="215" type="curve" smooth="yes"/>
      <point x="485" y="155"/>
      <point x="454" y="122"/>
      <point x="393" y="122" type="curve" smooth="yes"/>
      <point x="221" y="122" type="line"/>
    </contour>
    <contour>
      <point x="82" y="-5" type="line"/>
      <point x="241" y="-5" type="line"/>
      <point x="241" y="735" type="line"/>
      <point x="82" y="735" type="line"/>
    </contour>
    <contour>
      <point x="221" y="332" type="line"/>
      <point x="356" y="332" type="line" smooth="yes"/>
      <point x="504" y="332"/>
      <point x="616" y="379"/>
      <point x="616" y="517" type="curve" smooth="yes"/>
      <point x="616" y="532" type="line" smooth="yes"/>
      <point x="616" y="663"/>
      <point x="523" y="735"/>
      <point x="356" y="735" type="curve" smooth="yes"/>
      <point x="221" y="735" type="line"/>
      <point x="221" y="608" type="line"/>
      <point x="366" y="608" type="line" smooth="yes"/>
      <point x="427" y="608"/>
      <point x="455" y="574"/>
      <point x="455" y="518" type="curve" smooth="yes"/>
      <point x="455" y="464"/>
      <point x="427" y="430"/>
      <point x="366" y="430" type="curve" smooth="yes"/>
      <point x="221" y="430" type="line"/>
    </contour>
  </outline>
</glyph>
<glyph name="C" format="2">
  <advance width="800"/>
  <unicode hex="0043"/>
  <anchor x="417" y="0" name="bottom"/>
  <anchor x="413" y="730" name="top"/>
  <outline>
    <contour>
      <point x="417" y="-19" type="curve" smooth="yes"/>
      <point x="626" y="-19"/>
      <point x="755" y="112"/>
      <point x="773" y="273" type="curve"/>
      <point x="609" y="273" type="line"/>
      <point x="595" y="186"/>
      <point x="518" y="133"/>
      <point x="417" y="133" type="curve" smooth="yes"/>
      <point x="283" y="133"/>
      <point x="208" y="228"/>
      <point x="208" y="366" type="curve" smooth="yes"/>
      <point x="208" y="505"/>
      <point x="281" y="599"/>
      <point x="412" y="599" type="curve" smooth="yes"/>
      <point x="511" y="599"/>
      <point x="583" y="547"/>
      <point x="598" y="459" type="curve"/>
      <point x="762" y="459" type="line"/>
      <point x="744" y="634"/>
      <point x="611" y="751"/>
      <point x="412" y="751" type="curve" smooth="yes"/>
      <point x="159" y="751"/>
      <point x="43" y="559"/>
      <point x="43" y="378" type="curve" smooth="yes"/>
      <point x="43" y="356" type="line" smooth="yes"/>
      <point x="43" y="191"/>
      <point x="153" y="-19"/>
    </contour>
  </outline>
</glyph>
<glyph name="D" format="2">
  <advance width="782"/>
  <unicode hex="0044"/>
  <anchor x="390" y="0" name="bottom"/>
  <anchor x="207" y="365" name="center"/>
  <anchor x="380" y="730" name="top"/>
  <outline>
    <contour>
      <point x="226" y="-4" type="line"/>
      <point x="353" y="-4" type="line" smooth="yes"/>
      <point x="616" y="-4"/>
      <point x="749" y="178"/>
      <point x="749" y="356" type="curve" smooth="yes"/>
      <point x="749" y="378" type="line" smooth="yes"/>
      <point x="749" y="568"/>
      <point x="616" y="735"/>
      <point x="353" y="735" type="curve" smooth="yes"/>
      <point x="226" y="735" type="line"/>
      <point x="226" y="583" type="line"/>
      <point x="362" y="583" type="line" smooth="yes"/>
      <point x="500" y="583"/>
      <point x="583" y="504"/>
      <point x="583" y="367" type="curve" smooth="yes"/>
      <point x="583" y="236"/>
      <point x="500" y="149"/>
      <point x="362" y="149" type="curve" smooth="yes"/>
      <point x="226" y="149" type="line"/>
    </contour>
    <contour>
      <point x="82" y="-4" type="line"/>
      <point x="246" y="-4" type="line"/>
      <point x="246" y="735" type="line"/>
      <point x="82" y="735" type="line"/>
    </contour>
  </outline>
</glyph>
<glyph name="E" format="2">
  <advance width="594"/>
  <unicode hex="0045"/>
  <anchor x="312" y="0" name="bottom"/>
  <anchor x="539" y="10" name="ogonek"/>
  <anchor x="309" y="730" name="top"/>
  <outline>
    <contour>
      <point x="82" y="0" type="line"/>
      <point x="241" y="0" type="line"/>
      <point x="241" y="730" type="line"/>
      <point x="82" y="730" type="line"/>
    </contour>
    <contour>
      <point x="221" y="0" type="line"/>
      <point x="541" y="0" type="line"/>
      <point x="541" y="136" type="line"/>
      <point x="221" y="136" type="line"/>
    </contour>
    <contour>
      <point x="221" y="303" type="line"/>
      <point x="517" y="303" type="line"/>
      <point x="517" y="439" type="line"/>
      <point x="221" y="439" type="line"/>
    </contour>
    <contour>
      <point x="221" y="594" type="line"/>
      <point x="534" y="594" type="line"/>
      <point x="534" y="730" type="line"/>
      <point x="221" y="730" type="line"/>
    </contour>
  </outline>
</glyph>
<glyph name="H" format="2">
  <advance width="800"/>
  <unicode hex="0048"/>
  <anchor x="400" y="0" name="bottom"/>
  <anchor x="400" y="606" name="center"/>
  <anchor x="400" y="730" name="top"/>
  <outline>
    <contour>
      <point x="554" y="0" type="line"/>
      <point x="717" y="0" type="line"/>
      <point x="717" y="730" type="line"/>
      <point x="554" y="730" type="line"/>
    </contour>
    <contour>
      <point x="82" y="0" type="line"/>
      <point x="246" y="0" type="line"/>
      <point x="246" y="730" type="line"/>
      <point x="82" y="730" type="line"/>
    </contour>
    <contour>
      <point x="217" y="295" type="line"/>
      <point x="583" y="295" type="line"/>
      <point x="583" y="438" type="line"/>
      <point x="217" y="438" type="line"/>
    </contour>
  </outline>
</glyph>
<glyph name="I" format="2">
  <advance width="332"/>
  <unicode hex="0049"/>
  <anchor x="166" y="0" name="bottom"/>
  <anchor x="237" y="10" name="ogonek"/>
  <anchor x="166" y="730" name="top"/>
  <anchor x="-3" y="730" name="topleft"/>
  <outline>
    <contour>
      <point x="84" y="0" type="line"/>
      <point x="248" y="0" type="line"/>
      <point x="248" y="730" type="line"/>
      <point x="84" y="730" type="line"/>
    </contour>
  </outline>
</glyph>
<glyph name="J" format="2">
  <advance width="643"/>
  <unicode hex="004A"/>
  <anchor x="324" y="0" name="bottom"/>
  <anchor x="346" y="730" name="top"/>
  <outline>
    <contour>
      <point x="303" y="-19" type="curve" smooth="yes"/>
      <point x="470" y="-19"/>
      <point x="573" y="77"/>
      <point x="573" y="250" type="curve" smooth="yes"/>
      <point x="573" y="607" type="line"/>
      <point x="409" y="607" type="line"/>
      <point x="409" y="241" type="line" smooth="yes"/>
      <point x="409" y="175"/>
      <point x="368" y="133"/>
      <point x="302" y="133" type="curve" smooth="yes"/>
      <point x="237" y="133"/>
      <point x="196" y="175"/>
      <point x="196" y="241" type="curve" smooth="yes"/>
      <point x="196" y="286" type="line"/>
      <point x="34" y="286" type="line"/>
      <point x="34" y="250" type="line" smooth="yes"/>
      <point x="34" y="77"/>
      <point x="137" y="-19"/>
    </contour>
    <contour>
      <point x="119" y="587" type="line"/>
      <point x="573" y="587" type="line"/>
      <point x="573" y="730" type="line"/>
      <point x="119" y="730" type="line"/>
    </contour>
  </outline>
</glyph>
<glyph name="K" format="2">
  <advance width="752"/>
  <unicode hex="004B"/>
  <anchor x="398" y="0" name="bottom"/>
  <anchor x="379" y="730" name="top"/>
  <outline>
    <contour>
      <point x="562" y="0" type="line"/>
      <point x="759" y="0" type="line"/>
      <point x="425" y="451" type="line"/>
      <point x="427" y="381" type="line"/>
      <point x="702" y="730" type="line"/>
      <point x="514" y="730" type="line"/>
      <point x="208" y="341" type="line"/>
      <point x="309" y="341" type="line"/>
    </contour>
    <contour>
      <point x="82" y="0" type="line"/>
      <point x="246" y="0" type="line"/>
      <point x="246" y="730" type="line"/>
      <point x="82" y="730" type="line"/>
    </contour>
  </outline>
</glyph>
<glyph name="M" format="2">
  <advance width="971"/>
  <unicode hex="004D"/>
  <guideline x="28" y="549" angle="0.0"/>
  <outline>
    <contour>
      <point x="82" y="0" type="line"/>
      <point x="232" y="0" type="line"/>
      <point x="232" y="623" type="line"/>
      <point x="207" y="621" type="line"/>
      <point x="400" y="148" type="line"/>
      <point x="557" y="148" type="line"/>
      <point x="750" y="621" type="line"/>
      <point x="726" y="623" type="line"/>
      <point x="726" y="0" type="line"/>
      <point x="888" y="0" type="line"/>
      <point x="888" y="730" type="line"/>
      <point x="659" y="730" type="line"/>
      <point x="493" y="319" type="line"/>
      <point x="474" y="319" type="line"/>
      <point x="307" y="730" type="line"/>
      <point x="82" y="730" type="line"/>
    </contour>
  </outline>
</glyph>
<glyph name="N" format="2">
  <advance width="876"/>
  <unicode hex="004E"/>
  <anchor x="431" y="0" name="bottom"/>
  <anchor x="450" y="730" name="top"/>
  <outline>
    <contour>
      <point x="82" y="0" type="line"/>
      <point x="234" y="0" type="line"/>
      <point x="234" y="615" type="line"/>
      <point x="214" y="597" type="line"/>
      <point x="248" y="597" type="line"/>
      <point x="524" y="0" type="line"/>
      <point x="794" y="0" type="line"/>
      <point x="794" y="730" type="line"/>
      <point x="640" y="730" type="line"/>
      <point x="640" y="115" type="line"/>
      <point x="660" y="133" type="line"/>
      <point x="626" y="133" type="line"/>
      <point x="350" y="730" type="line"/>
      <point x="82" y="730" type="line"/>
    </contour>
  </outline>
</glyph>
<glyph name="P" format="2">
  <advance width="667"/>
  <unicode hex="0050"/>
  <outline>
    <contour>
      <point x="226" y="209" type="line"/>
      <point x="348" y="209" type="line" smooth="yes"/>
      <point x="534" y="209"/>
      <point x="645" y="307"/>
      <point x="645" y="464" type="curve" smooth="yes"/>
      <point x="645" y="480" type="line" smooth="yes"/>
      <point x="645" y="639"/>
      <point x="534" y="735"/>
      <point x="348" y="735" type="curve" smooth="yes"/>
      <point x="226" y="735" type="line"/>
      <point x="226" y="594" type="line"/>
      <point x="357" y="594" type="line" smooth="yes"/>
      <point x="434" y="594"/>
      <point x="480" y="547"/>
      <point x="480" y="472" type="curve" smooth="yes"/>
      <point x="480" y="399"/>
      <point x="434" y="350"/>
      <point x="357" y="350" type="curve" smooth="yes"/>
      <point x="226" y="350" type="line"/>
    </contour>
    <contour>
      <point x="82" y="0" type="line"/>
      <point x="246" y="0" type="line"/>
      <point x="246" y="735" type="line"/>
      <point x="82" y="735" type="line"/>
    </contour>
  </outline>
</glyph>
<glyph name="R" format="2">
  <advance width="730"/>
  <unicode hex="0052"/>
  <anchor x="378" y="0" name="bottom"/>
  <anchor x="347" y="730" name="top"/>
  <outline>
    <contour>
      <point x="82" y="0" type="line"/>
      <point x="246" y="0" type="line"/>
      <point x="246" y="735" type="line"/>
      <point x="82" y="735" type="line"/>
    </contour>
    <contour>
      <point x="525" y="0" type="line"/>
      <point x="715" y="0" type="line"/>
      <point x="490" y="314" type="line"/>
      <point x="311" y="314" type="line"/>
    </contour>
    <contour>
      <point x="201" y="234" type="line"/>
      <point x="369" y="234" type="line" smooth="yes"/>
      <point x="550" y="234"/>
      <point x="665" y="313"/>
      <point x="665" y="475" type="curve" smooth="yes"/>
      <point x="665" y="491" type="line" smooth="yes"/>
      <point x="665" y="654"/>
      <point x="551" y="735"/>
      <point x="369" y="735" type="curve" smooth="yes"/>
      <point x="201" y="735" type="line"/>
      <point x="201" y="597" type="line"/>
      <point x="382" y="597" type="line" smooth="yes"/>
      <point x="453" y="597"/>
      <point x="500" y="550"/>
      <point x="500" y="480" type="curve" smooth="yes"/>
      <point x="500" y="409"/>
      <point x="453" y="363"/>
      <point x="382" y="363" type="curve" smooth="yes"/>
      <point x="201" y="363" type="line"/>
    </contour>
  </outline>
</glyph>
<glyph name="S" format="2">
  <advance width="667"/>
  <unicode hex="0053"/>
  <anchor x="335" y="0" name="bottom"/>
  <anchor x="324" y="730" name="top"/>
  <outline>
    <contour>
      <point x="336" y="-19" type="curve" smooth="yes"/>
      <point x="521" y="-19"/>
      <point x="635" y="73"/>
      <point x="635" y="214" type="curve" smooth="yes"/>
      <point x="635" y="349"/>
      <point x="524" y="425"/>
      <point x="365" y="439" type="curve" smooth="yes"/>
      <point x="309" y="444" type="line" smooth="yes"/>
      <point x="241" y="449"/>
      <point x="215" y="483"/>
      <point x="215" y="525" type="curve" smooth="yes"/>
      <point x="215" y="573"/>
      <point x="251" y="614"/>
      <point x="324" y="614" type="curve" smooth="yes"/>
      <point x="400" y="614"/>
      <point x="440" y="567"/>
      <point x="440" y="514" type="curve"/>
      <point x="599" y="514" type="line"/>
      <point x="599" y="657"/>
      <point x="496" y="751"/>
      <point x="324" y="751" type="curve" smooth="yes"/>
      <point x="161" y="751"/>
      <point x="55" y="665"/>
      <point x="55" y="525" type="curve" smooth="yes"/>
      <point x="55" y="395"/>
      <point x="148" y="313"/>
      <point x="294" y="301" type="curve" smooth="yes"/>
      <point x="349" y="296" type="line" smooth="yes"/>
      <point x="438" y="288"/>
      <point x="476" y="261"/>
      <point x="476" y="214" type="curve" smooth="yes"/>
      <point x="476" y="158"/>
      <point x="427" y="118"/>
      <point x="336" y="118" type="curve" smooth="yes"/>
      <point x="233" y="118"/>
      <point x="190" y="167"/>
      <point x="190" y="224" type="curve"/>
      <point x="31" y="224" type="line"/>
      <point x="31" y="82"/>
      <point x="137" y="-19"/>
    </contour>
  </outline>
</glyph>
<glyph name="U" format="2">
  <advance width="776"/>
  <unicode hex="0055"/>
  <anchor x="388" y="0" name="bottom"/>
  <anchor x="535" y="15" name="ogonek"/>
  <anchor x="388" y="730" name="top"/>
  <outline>
    <contour>
      <point x="388" y="-19" type="curve" smooth="yes"/>
      <point x="595" y="-19"/>
      <point x="707" y="104"/>
      <point x="707" y="297" type="curve" smooth="yes"/>
      <point x="707" y="730" type="line"/>
      <point x="544" y="730" type="line"/>
      <point x="544" y="291" type="line" smooth="yes"/>
      <point x="544" y="193"/>
      <point x="488" y="133"/>
      <point x="388" y="133" type="curve" smooth="yes"/>
      <point x="288" y="133"/>
      <point x="232" y="194"/>
      <point x="232" y="291" type="curve" smooth="yes"/>
      <point x="232" y="730" type="line"/>
      <point x="68" y="730" type="line"/>
      <point x="68" y="297" type="line" smooth="yes"/>
      <point x="68" y="104"/>
      <point x="181" y="-19"/>
    </contour>
  </outline>
</glyph>
<glyph name="V" format="2">
  <advance width="739"/>
  <unicode hex="0056"/>
  <outline>
    <contour>
      <point x="243" y="0" type="line"/>
      <point x="509" y="0" type="line"/>
      <point x="717" y="730" type="line"/>
      <point x="553" y="730" type="line"/>
      <point x="390" y="114" type="line"/>
      <point x="429" y="133" type="line"/>
      <point x="327" y="133" type="line"/>
      <point x="366" y="114" type="line"/>
      <point x="189" y="730" type="line"/>
      <point x="21" y="730" type="line"/>
    </contour>
  </outline>
</glyph>
<glyph name="X" format="2">
  <advance width="721"/>
  <unicode hex="0058"/>
  <outline>
    <contour>
      <point x="9" y="0" type="line"/>
      <point x="183" y="0" type="line"/>
      <point x="342" y="258" type="line"/>
      <point x="365" y="258" type="line"/>
      <point x="532" y="0" type="line"/>
      <point x="712" y="0" type="line"/>
      <point x="456" y="386" type="line"/>
      <point x="458" y="369" type="line"/>
      <point x="689" y="730" type="line"/>
      <point x="515" y="730" type="line"/>
      <point x="375" y="501" type="line"/>
      <point x="352" y="501" type="line"/>
      <point x="210" y="730" type="line"/>
      <point x="30" y="730" type="line"/>
      <point x="260" y="372" type="line"/>
      <point x="258" y="389" type="line"/>
    </contour>
  </outline>
</glyph>
<glyph name="Y" format="2">
  <advance width="656"/>
  <unicode hex="0059"/>
  <anchor x="336" y="0" name="bottom"/>
  <anchor x="331" y="730" name="top"/>
  <outline>
    <contour>
      <point x="220" y="277" type="line"/>
      <point x="452" y="277" type="line"/>
      <point x="649" y="730" type="line"/>
      <point x="490" y="730" type="line"/>
      <point x="352" y="390" type="line"/>
      <point x="383" y="400" type="line"/>
      <point x="299" y="400" type="line"/>
      <point x="328" y="390" type="line"/>
      <point x="175" y="730" type="line"/>
      <point x="7" y="730" type="line"/>
    </contour>
    <contour>
      <point x="256" y="0" type="line"/>
      <point x="416" y="0" type="line"/>
      <point x="416" y="300" type="line"/>
      <point x="256" y="300" type="line"/>
    </contour>
  </outline>
</glyph>
<glyph name="bracketleft" format="2">
  <advance width="392"/>
  <unicode hex="005B"/>
  <guideline x="6" y="-182" angle="0.0"/>
  <outline>
    <contour>
      <point x="86" y="-182" type="line"/>
      <point x="239" y="-182" type="line"/>
      <point x="239" y="776" type="line"/>
      <point x="86" y="776" type="line"/>
    </contour>
    <contour>
      <point x="191" y="-182" type="line"/>
      <point x="350" y="-182" type="line"/>
      <point x="350" y="-49" type="line"/>
      <point x="191" y="-49" type="line"/>
    </contour>
    <contour>
      <point x="191" y="643" type="line"/>
      <point x="350" y="643" type="line"/>
      <point x="350" y="776" type="line"/>
      <point x="191" y="776" type="line"/>
    </contour>
  </outline>
</glyph>
<glyph name="a" format="2">
  <advance width="594"/>
  <unicode hex="0061"/>
  <anchor x="526" y="10" name="ogonek"/>
  <anchor x="290" y="547" name="top"/>
  <outline>
    <contour>
      <point x="404" y="0" type="line"/>
      <point x="530" y="0" type="line"/>
      <point x="530" y="336" type="line" smooth="yes"/>
      <point x="530" y="488"/>
      <point x="440" y="556"/>
      <point x="271" y="556" type="curve" smooth="yes"/>
      <point x="214" y="556"/>
      <point x="138" y="553"/>
      <point x="92" y="549" type="curve"/>
      <point x="92" y="414" type="line"/>
      <point x="153" y="418"/>
      <point x="248" y="422"/>
      <point x="293" y="422" type="curve" smooth="yes"/>
      <point x="351" y="422"/>
      <point x="377" y="394"/>
      <point x="377" y="338" type="curve" smooth="yes"/>
      <point x="377" y="161" type="line"/>
      <point x="404" y="161" type="line"/>
    </contour>
    <contour>
      <point x="229" y="-14" type="curve" smooth="yes"/>
      <point x="343" y="-14"/>
      <point x="405" y="49"/>
      <point x="415" y="163" type="curve"/>
      <point x="377" y="202" type="line"/>
      <point x="373" y="121"/>
      <point x="329" y="96"/>
      <point x="277" y="96" type="curve" smooth="yes"/>
      <point x="220" y="96"/>
      <point x="189" y="126"/>
      <point x="189" y="171" type="curve" smooth="yes"/>
      <point x="189" y="217"/>
      <point x="221" y="247"/>
      <point x="277" y="247" type="curve" smooth="yes"/>
      <point x="395" y="247" type="line"/>
      <point x="395" y="336" type="line"/>
      <point x="278" y="336" type="line" smooth="yes"/>
      <point x="131" y="336"/>
      <point x="31" y="283"/>
      <point x="31" y="161" type="curve" smooth="yes"/>
      <point x="31" y="50"/>
      <point x="111" y="-14"/>
    </contour>
  </outline>
</glyph>
<glyph name="c" format="2">
  <advance width="611"/>
  <unicode hex="0063"/>
  <anchor x="319" y="0" name="bottom"/>
  <anchor x="318" y="547" name="top"/>
  <outline>
    <contour>
      <point x="319" y="-19" type="curve" smooth="yes"/>
      <point x="466" y="-19"/>
      <point x="574" y="72"/>
      <point x="582" y="209" type="curve"/>
      <point x="426" y="209" type="line"/>
      <point x="420" y="153"/>
      <point x="383" y="117"/>
      <point x="319" y="117" type="curve" smooth="yes"/>
      <point x="232" y="117"/>
      <point x="199" y="182"/>
      <point x="199" y="272" type="curve" smooth="yes"/>
      <point x="199" y="366"/>
      <point x="237" y="430"/>
      <point x="318" y="430" type="curve" smooth="yes"/>
      <point x="381" y="430"/>
      <point x="416" y="391"/>
      <point x="422" y="342" type="curve"/>
      <point x="578" y="342" type="line"/>
      <point x="569" y="474"/>
      <point x="465" y="567"/>
      <point x="318" y="567" type="curve" smooth="yes"/>
      <point x="136" y="567"/>
      <point x="39" y="431"/>
      <point x="39" y="282" type="curve" smooth="yes"/>
      <point x="39" y="262" type="line" smooth="yes"/>
      <point x="39" y="120"/>
      <point x="130" y="-19"/>
    </contour>
  </outline>
</glyph>
<glyph name="d" format="2">
  <advance width="703"/>
  <unicode hex="0064"/>
  <anchor x="324" y="0" name="bottom"/>
  <anchor x="506" y="639" name="center"/>
  <anchor x="552" y="730" name="top"/>
  <anchor x="619" y="534" name="topright"/>
  <outline>
    <contour>
      <point x="299" y="-18" type="curve" smooth="yes"/>
      <point x="430" y="-18"/>
      <point x="521" y="70"/>
      <point x="526" y="227" type="curve"/>
      <point x="504" y="227" type="line"/>
      <point x="504" y="0" type="line"/>
      <point x="630" y="0" type="line"/>
      <point x="630" y="730" type="line"/>
      <point x="470" y="730" type="line"/>
      <point x="470" y="354" type="line"/>
      <point x="512" y="314" type="line"/>
      <point x="507" y="477"/>
      <point x="424" y="564"/>
      <point x="293" y="564" type="curve" smooth="yes"/>
      <point x="139" y="564"/>
      <point x="39" y="441"/>
      <point x="39" y="283" type="curve" smooth="yes"/>
      <point x="39" y="260" type="line" smooth="yes"/>
      <point x="39" y="101"/>
      <point x="145" y="-18"/>
    </contour>
    <contour>
      <point x="338" y="115" type="curve" smooth="yes"/>
      <point x="257" y="115"/>
      <point x="199" y="176"/>
      <point x="199" y="271" type="curve" smooth="yes"/>
      <point x="199" y="366"/>
      <point x="256" y="431"/>
      <point x="338" y="431" type="curve" smooth="yes"/>
      <point x="409" y="431"/>
      <point x="474" y="382"/>
      <point x="474" y="295" type="curve" smooth="yes"/>
      <point x="474" y="258" type="line" smooth="yes"/>
      <point x="474" y="167"/>
      <point x="413" y="115"/>
    </contour>
  </outline>
</glyph>
<glyph name="g" format="2">
  <advance width="686"/>
  <unicode hex="0067"/>
  <anchor x="286" y="-300" name="bottom"/>
  <anchor x="329" y="547" name="top"/>
  <outline>
    <contour>
      <point x="289" y="-218" type="curve" smooth="yes"/>
      <point x="513" y="-218"/>
      <point x="620" y="-137"/>
      <point x="620" y="64" type="curve" smooth="yes"/>
      <point x="620" y="547" type="line"/>
      <point x="493" y="547" type="line"/>
      <point x="493" y="309" type="line"/>
      <point x="515" y="314" type="line"/>
      <point x="510" y="474"/>
      <point x="425" y="564"/>
      <point x="294" y="564" type="curve" smooth="yes"/>
      <point x="142" y="564"/>
      <point x="39" y="447"/>
      <point x="39" y="291" type="curve" smooth="yes"/>
      <point x="39" y="268" type="line" smooth="yes"/>
      <point x="39" y="113"/>
      <point x="134" y="-4"/>
      <point x="284" y="-4" type="curve" smooth="yes"/>
      <point x="413" y="-4"/>
      <point x="494" y="81"/>
      <point x="498" y="228" type="curve"/>
      <point x="469" y="164" type="line"/>
      <point x="469" y="55" type="line" smooth="yes"/>
      <point x="469" y="-41"/>
      <point x="414" y="-84"/>
      <point x="285" y="-84" type="curve" smooth="yes"/>
      <point x="238" y="-84"/>
      <point x="177" y="-79"/>
      <point x="130" y="-73" type="curve"/>
      <point x="130" y="-207" type="line"/>
      <point x="176" y="-214"/>
      <point x="235" y="-218"/>
    </contour>
    <contour>
      <point x="334" y="130" type="curve" smooth="yes"/>
      <point x="254" y="130"/>
      <point x="199" y="187"/>
      <point x="199" y="279" type="curve" smooth="yes"/>
      <point x="199" y="372"/>
      <point x="254" y="432"/>
      <point x="334" y="432" type="curve" smooth="yes"/>
      <point x="404" y="432"/>
      <point x="466" y="384"/>
      <point x="466" y="299" type="curve" smooth="yes"/>
      <point x="466" y="270" type="line" smooth="yes"/>
      <point x="466" y="181"/>
      <point x="407" y="130"/>
    </contour>
  </outline>
</glyph>
<glyph name="i" format="2">
  <advance width="333"/>
  <unicode hex="0069"/>
  <anchor x="179" y="0" name="bottom"/>
  <outline>
    <contour>
      <point x="99" y="0" type="line"/>
      <point x="259" y="0" type="line"/>
      <point x="259" y="547" type="line"/>
      <point x="99" y="547" type="line"/>
    </contour>
    <contour>
      <point x="26" y="430" type="line"/>
      <point x="259" y="430" type="line"/>
      <point x="259" y="547" type="line"/>
      <point x="26" y="547" type="line"/>
    </contour>
    <contour>
      <point x="161" y="602" type="curve" smooth="yes"/>
      <point x="221" y="602"/>
      <point x="248" y="637"/>
      <point x="248" y="685" type="curve" smooth="yes"/>
      <point x="248" y="734"/>
      <point x="221" y="768"/>
      <point x="161" y="768" type="curve" smooth="yes"/>
      <point x="101" y="768"/>
      <point x="73" y="734"/>
      <point x="73" y="685" type="curve" smooth="yes"/>
      <point x="73" y="637"/>
      <point x="101" y="602"/>
    </contour>
  </outline>
</glyph>
<glyph name="j" format="2">
  <advance width="339"/>
  <unicode hex="006A"/>
  <outline>
    <contour>
      <point x="4" y="-205" type="line"/>
      <point x="33" y="-205" type="line" smooth="yes"/>
      <point x="198" y="-205"/>
      <point x="269" y="-148"/>
      <point x="269" y="10" type="curve" smooth="yes"/>
      <point x="269" y="547" type="line"/>
      <point x="114" y="547" type="line"/>
      <point x="114" y="5" type="line" smooth="yes"/>
      <point x="114" y="-44"/>
      <point x="88" y="-70"/>
      <point x="39" y="-70" type="curve" smooth="yes"/>
      <point x="4" y="-70" type="line"/>
    </contour>
    <contour>
      <point x="38" y="430" type="line"/>
      <point x="269" y="430" type="line"/>
      <point x="269" y="547" type="line"/>
      <point x="38" y="547" type="line"/>
    </contour>
    <contour>
      <point x="171" y="604" type="curve" smooth="yes"/>
      <point x="231" y="604"/>
      <point x="258" y="639"/>
      <point x="258" y="687" type="curve" smooth="yes"/>
      <point x="258" y="736"/>
      <point x="231" y="770"/>
      <point x="171" y="770" type="curve" smooth="yes"/>
      <point x="111" y="770"/>
      <point x="83" y="736"/>
      <point x="83" y="687" type="curve" smooth="yes"/>
      <point x="83" y="639"/>
      <point x="111" y="604"/>
    </contour>
  </outline>
</glyph>
<glyph name="k" format="2">
  <advance width="638"/>
  <unicode hex="006B"/>
  <anchor x="340" y="0" name="bottom"/>
  <anchor x="153" y="730" name="top"/>
  <outline>
    <contour>
      <point x="459" y="0" type="line"/>
      <point x="638" y="0" type="line"/>
      <point x="391" y="354" type="line"/>
      <point x="390" y="276" type="line"/>
      <point x="599" y="547" type="line"/>
      <point x="432" y="547" type="line"/>
      <point x="208" y="256" type="line"/>
      <point x="286" y="256" type="line"/>
    </contour>
    <contour>
      <point x="73" y="0" type="line"/>
      <point x="233" y="0" type="line"/>
      <point x="233" y="730" type="line"/>
      <point x="73" y="730" type="line"/>
    </contour>
  </outline>
</glyph>
<glyph name="p" format="2">
  <advance width="703"/>
  <unicode hex="0070"/>
  <outline>
    <contour>
      <point x="73" y="-200" type="line"/>
      <point x="233" y="-200" type="line"/>
      <point x="233" y="159" type="line"/>
      <point x="189" y="219" type="line"/>
      <point x="194" y="56"/>
      <point x="289" y="-18"/>
      <point x="413" y="-18" type="curve" smooth="yes"/>
      <point x="572" y="-18"/>
      <point x="665" y="104"/>
      <point x="665" y="263" type="curve" smooth="yes"/>
      <point x="665" y="286" type="line" smooth="yes"/>
      <point x="665" y="445"/>
      <point x="565" y="564"/>
      <point x="413" y="564" type="curve" smooth="yes"/>
      <point x="283" y="564"/>
      <point x="190" y="476"/>
      <point x="183" y="312" type="curve"/>
      <point x="199" y="311" type="line"/>
      <point x="199" y="547" type="line"/>
      <point x="73" y="547" type="line"/>
    </contour>
    <contour>
      <point x="368" y="115" type="curve" smooth="yes"/>
      <point x="299" y="115"/>
      <point x="229" y="165"/>
      <point x="229" y="251" type="curve" smooth="yes"/>
      <point x="229" y="288" type="line" smooth="yes"/>
      <point x="229" y="378"/>
      <point x="294" y="431"/>
      <point x="368" y="431" type="curve" smooth="yes"/>
      <point x="450" y="431"/>
      <point x="505" y="368"/>
      <point x="505" y="274" type="curve" smooth="yes"/>
      <point x="505" y="181"/>
      <point x="449" y="115"/>
    </contour>
  </outline>
</glyph>
<glyph name="q" format="2">
  <advance width="703"/>
  <unicode hex="0071"/>
  <outline>
    <contour>
      <point x="470" y="-200" type="line"/>
      <point x="630" y="-200" type="line"/>
      <point x="630" y="547" type="line"/>
      <point x="504" y="547" type="line"/>
      <point x="504" y="314" type="line"/>
      <point x="523" y="314" type="line"/>
      <point x="518" y="473"/>
      <point x="433" y="564"/>
      <point x="299" y="564" type="curve" smooth="yes"/>
      <point x="143" y="564"/>
      <point x="39" y="442"/>
      <point x="39" y="284" type="curve" smooth="yes"/>
      <point x="39" y="261" type="line" smooth="yes"/>
      <point x="39" y="103"/>
      <point x="139" y="-18"/>
      <point x="292" y="-18" type="curve" smooth="yes"/>
      <point x="424" y="-18"/>
      <point x="508" y="71"/>
      <point x="513" y="220" type="curve"/>
      <point x="470" y="162" type="line"/>
    </contour>
    <contour>
      <point x="338" y="116" type="curve" smooth="yes"/>
      <point x="257" y="116"/>
      <point x="199" y="178"/>
      <point x="199" y="272" type="curve" smooth="yes"/>
      <point x="199" y="367"/>
      <point x="256" y="432"/>
      <point x="338" y="432" type="curve" smooth="yes"/>
      <point x="409" y="432"/>
      <point x="474" y="383"/>
      <point x="474" y="296" type="curve" smooth="yes"/>
      <point x="474" y="259" type="line" smooth="yes"/>
      <point x="474" y="168"/>
      <point x="413" y="116"/>
    </contour>
  </outline>
</glyph>
<glyph name="r" format="2">
  <advance width="420"/>
  <unicode hex="0072"/>
  <note>
r / design an alternative version with a round hook. Look at lettera (based on Olivetti Candia)
</note>
  <anchor x="153" y="0" name="bottom"/>
  <anchor x="236" y="547" name="top"/>
  <outline>
    <contour>
      <point x="73" y="0" type="line"/>
      <point x="233" y="0" type="line"/>
      <point x="233" y="279" type="line" smooth="yes"/>
      <point x="233" y="367"/>
      <point x="282" y="417"/>
      <point x="370" y="417" type="curve" smooth="yes"/>
      <point x="410" y="417" type="line"/>
      <point x="410" y="555" type="line"/>
      <point x="389" y="555" type="line" smooth="yes"/>
      <point x="264" y="555"/>
      <point x="197" y="467"/>
      <point x="197" y="313" type="curve"/>
      <point x="199" y="313" type="line"/>
      <point x="199" y="547" type="line"/>
      <point x="73" y="547" type="line"/>
    </contour>
  </outline>
</glyph>
<glyph name="s" format="2">
  <advance width="555"/>
  <unicode hex="0073"/>
  <note>
s
</note>
  <anchor x="280" y="0" name="bottom"/>
  <anchor x="272" y="547" name="top"/>
  <outline>
    <contour>
      <point x="280" y="-17" type="curve" smooth="yes"/>
      <point x="430" y="-17"/>
      <point x="525" y="52"/>
      <point x="525" y="162" type="curve" smooth="yes"/>
      <point x="525" y="262"/>
      <point x="446" y="324"/>
      <point x="312" y="338" type="curve" smooth="yes"/>
      <point x="269" y="343" type="line" smooth="yes"/>
      <point x="211" y="349"/>
      <point x="188" y="364"/>
      <point x="188" y="395" type="curve" smooth="yes"/>
      <point x="188" y="427"/>
      <point x="219" y="447"/>
      <point x="269" y="447" type="curve" smooth="yes"/>
      <point x="331" y="447"/>
      <point x="363" y="418"/>
      <point x="368" y="383" type="curve"/>
      <point x="510" y="383" type="line"/>
      <point x="504" y="500"/>
      <point x="412" y="563"/>
      <point x="271" y="563" type="curve" smooth="yes"/>
      <point x="139" y="563"/>
      <point x="44" y="504"/>
      <point x="44" y="388" type="curve" smooth="yes"/>
      <point x="44" y="294"/>
      <point x="111" y="232"/>
      <point x="242" y="218" type="curve" smooth="yes"/>
      <point x="285" y="214" type="line" smooth="yes"/>
      <point x="357" y="206"/>
      <point x="381" y="187"/>
      <point x="381" y="155" type="curve" smooth="yes"/>
      <point x="381" y="118"/>
      <point x="339" y="99"/>
      <point x="283" y="99" type="curve" smooth="yes"/>
      <point x="210" y="99"/>
      <point x="174" y="131"/>
      <point x="170" y="166" type="curve"/>
      <point x="28" y="166" type="line"/>
      <point x="33" y="50"/>
      <point x="126" y="-17"/>
    </contour>
  </outline>
</glyph>
<glyph name="v" format="2">
  <advance width="596"/>
  <unicode hex="0076"/>
  <outline>
    <contour>
      <point x="179" y="0" type="line"/>
      <point x="334" y="0" type="line"/>
      <point x="179" y="547" type="line"/>
      <point x="15" y="547" type="line"/>
    </contour>
    <contour>
      <point x="229" y="0" type="line"/>
      <point x="390" y="0" type="line"/>
      <point x="390" y="133" type="line"/>
      <point x="229" y="133" type="line"/>
    </contour>
    <contour>
      <point x="288" y="0" type="line"/>
      <point x="432" y="0" type="line"/>
      <point x="574" y="547" type="line"/>
      <point x="421" y="547" type="line"/>
    </contour>
  </outline>
</glyph>
<glyph name="x" format="2">
  <advance width="600"/>
  <unicode hex="0078"/>
  <outline>
    <contour>
      <point x="12" y="0" type="line"/>
      <point x="174" y="0" type="line"/>
      <point x="285" y="199" type="line"/>
      <point x="301" y="199" type="line"/>
      <point x="419" y="0" type="line"/>
      <point x="592" y="0" type="line"/>
      <point x="412" y="288" type="line"/>
      <point x="409" y="267" type="line"/>
      <point x="561" y="547" type="line"/>
      <point x="399" y="547" type="line"/>
      <point x="305" y="361" type="line"/>
      <point x="290" y="361" type="line"/>
      <point x="191" y="547" type="line"/>
      <point x="18" y="547" type="line"/>
      <point x="178" y="269" type="line"/>
      <point x="182" y="294" type="line"/>
    </contour>
  </outline>
</glyph>
<glyph name="bar" format="2">
  <advance width="375"/>
  <unicode hex="007C"/>
  <outline>
    <contour>
      <point x="120" y="-200" type="line"/>
      <point x="255" y="-199" type="line"/>
      <point x="255" y="731" type="line"/>
      <point x="120" y="730" type="line"/>
    </contour>
  </outline>
</glyph>
<glyph name="sterling" format="2">
  <advance width="636"/>
  <unicode hex="00A3"/>
  <outline>
    <contour>
      <point x="109" y="0" type="line"/>
      <point x="255" y="0" type="line"/>
      <point x="255" y="479" type="line" smooth="yes"/>
      <point x="255" y="566"/>
      <point x="294" y="611"/>
      <point x="395" y="611" type="curve" smooth="yes"/>
      <point x="435" y="611"/>
      <point x="521" y="606"/>
      <point x="560" y="601" type="curve"/>
      <point x="560" y="731" type="line"/>
      <point x="522" y="735"/>
      <point x="439" y="741"/>
      <point x="395" y="741" type="curve" smooth="yes"/>
      <point x="218" y="741"/>
      <point x="109" y="651"/>
      <point x="109" y="486" type="curve" smooth="yes"/>
    </contour>
    <contour>
      <point x="41" y="0" type="line"/>
      <point x="517" y="0" type="line"/>
      <point x="517" y="124" type="line"/>
      <point x="41" y="124" type="line"/>
    </contour>
    <contour>
      <point x="47" y="313" type="line"/>
      <point x="491" y="313" type="line"/>
      <point x="491" y="419" type="line"/>
      <point x="47" y="419" type="line"/>
    </contour>
    <contour>
      <point x="481" y="0" type="line"/>
      <point x="606" y="0" type="line"/>
      <point x="606" y="212" type="line"/>
      <point x="481" y="212" type="line"/>
    </contour>
  </outline>
</glyph>
<glyph name="currency" format="2">
  <advance width="682"/>
  <unicode hex="00A4"/>
  <outline>
    <contour>
      <point x="341" y="135" type="curve" smooth="yes"/>
      <point x="490" y="135"/>
      <point x="586" y="245"/>
      <point x="586" y="357" type="curve" smooth="yes"/>
      <point x="586" y="373" type="line" smooth="yes"/>
      <point x="586" y="487"/>
      <point x="490" y="595"/>
      <point x="341" y="595" type="curve" smooth="yes"/>
      <point x="192" y="595"/>
      <point x="97" y="487"/>
      <point x="97" y="373" type="curve" smooth="yes"/>
      <point x="97" y="357" type="line" smooth="yes"/>
      <point x="97" y="245"/>
      <point x="192" y="135"/>
    </contour>
    <contour>
      <point x="122" y="65" type="line"/>
      <point x="233" y="176" type="line"/>
      <point x="142" y="268" type="line"/>
      <point x="32" y="158" type="line"/>
    </contour>
    <contour>
      <point x="142" y="460" type="line"/>
      <point x="233" y="553" type="line"/>
      <point x="122" y="663" type="line"/>
      <point x="32" y="571" type="line"/>
    </contour>
    <contour>
      <point x="341" y="256" type="curve" smooth="yes"/>
      <point x="271" y="256"/>
      <point x="233" y="301"/>
      <point x="233" y="365" type="curve" smooth="yes"/>
      <point x="233" y="432"/>
      <point x="273" y="474"/>
      <point x="341" y="474" type="curve" smooth="yes"/>
      <point x="409" y="474"/>
      <point x="449" y="432"/>
      <point x="449" y="365" type="curve" smooth="yes"/>
      <point x="449" y="301"/>
      <point x="411" y="256"/>
    </contour>
    <contour>
      <point x="560" y="65" type="line"/>
      <point x="651" y="158" type="line"/>
      <point x="540" y="268" type="line"/>
      <point x="450" y="176" type="line"/>
    </contour>
    <contour>
      <point x="540" y="460" type="line"/>
      <point x="651" y="571" type="line"/>
      <point x="560" y="663" type="line"/>
      <point x="450" y="553" type="line"/>
    </contour>
  </outline>
</glyph>
<glyph name="yen" format="2">
  <advance width="666"/>
  <unicode hex="00A5"/>
  <outline>
    <contour>
      <point x="234" y="298" type="line"/>
      <point x="449" y="298" type="line"/>
      <point x="649" y="730" type="line"/>
      <point x="492" y="730" type="line"/>
      <point x="354" y="410" type="line"/>
      <point x="384" y="419" type="line"/>
      <point x="307" y="419" type="line"/>
      <point x="336" y="410" type="line"/>
      <point x="183" y="730" type="line"/>
      <point x="17" y="730" type="line"/>
    </contour>
    <contour>
      <point x="267" y="0" type="line"/>
      <point x="416" y="0" type="line"/>
      <point x="416" y="321" type="line"/>
      <point x="267" y="321" type="line"/>
    </contour>
    <contour>
      <point x="61" y="146" type="line"/>
      <point x="619" y="146" type="line"/>
      <point x="619" y="226" type="line"/>
      <point x="61" y="226" type="line"/>
    </contour>
    <contour>
      <point x="61" y="298" type="line"/>
      <point x="619" y="298" type="line"/>
      <point x="619" y="378" type="line"/>
      <point x="61" y="378" type="line"/>
    </contour>
  </outline>
</glyph>
<glyph name="multiply" format="2">
  <advance width="596"/>
  <unicode hex="00D7"/>
  <outline>
    <contour>
      <point x="458" y="93" type="line"/>
      <point x="46" y="504" type="line"/>
      <point x="138" y="596" type="line"/>
      <point x="550" y="185" type="line"/>
    </contour>
    <contour>
      <point x="134" y="93" type="line"/>
      <point x="46" y="181" type="line"/>
      <point x="462" y="596" type="line"/>
      <point x="550" y="508" type="line"/>
    </contour>
  </outline>
</glyph>
<glyph name="Oslash" format="2">
  <advance width="865"/>
  <unicode hex="00D8"/>
  <anchor x="432" y="0" name="bottom"/>
  <anchor x="432" y="355" name="center"/>
  <anchor x="562" y="10" name="ogonek"/>
  <anchor x="432" y="730" name="top"/>
  <outline>
    <contour>
      <point x="83" y="-65" type="line"/>
      <point x="209" y="-65" type="line"/>
      <point x="780" y="785" type="line"/>
      <point x="655" y="785" type="line"/>
    </contour>
    <component base="O"/>
  </outline>
</glyph>
<glyph name="germandbls" format="2">
  <advance width="675"/>
  <unicode hex="00DF"/>
  <outline>
    <contour>
      <point x="391" y="-13" type="curve" smooth="yes"/>
      <point x="530" y="-13"/>
      <point x="645" y="58"/>
      <point x="645" y="204" type="curve" smooth="yes"/>
      <point x="645" y="332"/>
      <point x="554" y="413"/>
      <point x="387" y="413" type="curve"/>
      <point x="386" y="372" type="line"/>
      <point x="521" y="372"/>
      <point x="584" y="443"/>
      <point x="584" y="539" type="curve" smooth="yes"/>
      <point x="584" y="659"/>
      <point x="489" y="747"/>
      <point x="340" y="747" type="curve" smooth="yes"/>
      <point x="336" y="747" type="line" smooth="yes"/>
      <point x="177" y="747"/>
      <point x="81" y="656"/>
      <point x="81" y="498" type="curve" smooth="yes"/>
      <point x="81" y="0" type="line"/>
      <point x="241" y="0" type="line"/>
      <point x="241" y="506" type="line" smooth="yes"/>
      <point x="241" y="577"/>
      <point x="282" y="617"/>
      <point x="338" y="617" type="curve" smooth="yes"/>
      <point x="391" y="617"/>
      <point x="424" y="579"/>
      <point x="424" y="529" type="curve" smooth="yes"/>
      <point x="424" y="484"/>
      <point x="398" y="447"/>
      <point x="346" y="447" type="curve" smooth="yes"/>
      <point x="315" y="447" type="line"/>
      <point x="315" y="329" type="line"/>
      <point x="358" y="329" type="line" smooth="yes"/>
      <point x="445" y="329"/>
      <point x="485" y="278"/>
      <point x="485" y="217" type="curve" smooth="yes"/>
      <point x="485" y="152"/>
      <point x="443" y="116"/>
      <point x="376" y="116" type="curve" smooth="yes"/>
      <point x="350" y="116"/>
      <point x="319" y="122"/>
      <point x="294" y="128" type="curve"/>
      <point x="294" y="-2" type="line"/>
      <point x="319" y="-9"/>
      <point x="354" y="-13"/>
    </contour>
    <contour>
      <point x="21" y="406" type="line"/>
      <point x="111" y="406" type="line"/>
      <point x="111" y="524" type="line"/>
      <point x="21" y="524" type="line"/>
    </contour>
  </outline>
</glyph>
<glyph name="eth" format="2">
  <advance width="673"/>
  <unicode hex="00F0"/>
  <guideline x="515" y="364" angle="180.0"/>
  <outline>
    <contour>
      <point x="338" y="-19" type="curve" smooth="yes"/>
      <point x="531" y="-19"/>
      <point x="633" y="111"/>
      <point x="633" y="323" type="curve" smooth="yes"/>
      <point x="633" y="349" type="line" smooth="yes"/>
      <point x="633" y="607"/>
      <point x="535" y="747"/>
      <point x="299" y="747" type="curve" smooth="yes"/>
      <point x="257" y="747"/>
      <point x="213" y="744"/>
      <point x="171" y="736" type="curve"/>
      <point x="171" y="616" type="line"/>
      <point x="213" y="622"/>
      <point x="257" y="627"/>
      <point x="299" y="627" type="curve" smooth="yes"/>
      <point x="356" y="627"/>
      <point x="400" y="616"/>
      <point x="428" y="595" type="curve" smooth="yes"/>
      <point x="471" y="564"/>
      <point x="502" y="489"/>
      <point x="504" y="358" type="curve"/>
      <point x="516" y="358" type="line"/>
      <point x="502" y="452"/>
      <point x="411" y="509"/>
      <point x="300" y="509" type="curve" smooth="yes"/>
      <point x="150" y="509"/>
      <point x="39" y="409"/>
      <point x="39" y="260" type="curve" smooth="yes"/>
      <point x="39" y="243" type="line" smooth="yes"/>
      <point x="39" y="101"/>
      <point x="147" y="-19"/>
    </contour>
    <contour>
      <point x="338" y="117" type="curve" smooth="yes"/>
      <point x="250" y="117"/>
      <point x="199" y="167"/>
      <point x="199" y="251" type="curve" smooth="yes"/>
      <point x="199" y="338"/>
      <point x="253" y="389"/>
      <point x="338" y="389" type="curve" smooth="yes"/>
      <point x="423" y="389"/>
      <point x="478" y="338"/>
      <point x="478" y="251" type="curve" smooth="yes"/>
      <point x="478" y="167"/>
      <point x="427" y="117"/>
    </contour>
    <contour>
      <point x="381" y="512" type="line"/>
      <point x="610" y="731" type="line"/>
      <point x="555" y="790" type="line"/>
      <point x="326" y="570" type="line"/>
    </contour>
  </outline>
</glyph>
<glyph name="divide" format="2">
  <advance width="596"/>
  <unicode hex="00F7"/>
  <outline>
    <contour>
      <point x="50" y="279" type="line"/>
      <point x="546" y="279" type="line"/>
      <point x="546" y="409" type="line"/>
      <point x="50" y="409" type="line"/>
    </contour>
    <contour>
      <point x="224" y="60" type="line"/>
      <point x="372" y="60" type="line"/>
      <point x="372" y="206" type="line"/>
      <point x="224" y="206" type="line"/>
    </contour>
    <contour>
      <point x="224" y="482" type="line"/>
      <point x="372" y="482" type="line"/>
      <point x="372" y="628" type="line"/>
      <point x="224" y="628" type="line"/>
    </contour>
  </outline>
</glyph>
<glyph name="oslash" format="2">
  <advance width="680"/>
  <unicode hex="00F8"/>
  <guideline y="586"/>
  <anchor x="340" y="0" name="bottom"/>
  <anchor x="340" y="267" name="center"/>
  <anchor x="457" y="11" name="ogonek"/>
  <anchor x="340" y="547" name="top"/>
  <outline>
    <contour>
      <point x="70" y="-62" type="line"/>
      <point x="168" y="-62" type="line"/>
      <point x="610" y="596" type="line"/>
      <point x="512" y="596" type="line"/>
    </contour>
    <component base="o"/>
  </outline>
</glyph>
<glyph name="thorn" format="2">
  <advance width="703"/>
  <unicode hex="00FE"/>
  <outline>
    <contour>
      <point x="73" y="-200" type="line"/>
      <point x="233" y="-200" type="line"/>
      <point x="233" y="158" type="line"/>
      <point x="189" y="218" type="line"/>
      <point x="194" y="55"/>
      <point x="288" y="-17"/>
      <point x="413" y="-17" type="curve" smooth="yes"/>
      <point x="572" y="-17"/>
      <point x="665" y="100"/>
      <point x="665" y="261" type="curve" smooth="yes"/>
      <point x="665" y="284" type="line" smooth="yes"/>
      <point x="665" y="449"/>
      <point x="574" y="561"/>
      <point x="425" y="561" type="curve" smooth="yes"/>
      <point x="295" y="561"/>
      <point x="213" y="475"/>
      <point x="206" y="333" type="curve"/>
      <point x="233" y="345" type="line"/>
      <point x="233" y="730" type="line"/>
      <point x="73" y="730" type="line"/>
    </contour>
    <contour>
      <point x="368" y="116" type="curve" smooth="yes"/>
      <point x="299" y="116"/>
      <point x="229" y="164"/>
      <point x="229" y="250" type="curve" smooth="yes"/>
      <point x="229" y="288" type="line" smooth="yes"/>
      <point x="229" y="377"/>
      <point x="294" y="428"/>
      <point x="368" y="428" type="curve" smooth="yes"/>
      <point x="450" y="428"/>
      <point x="505" y="368"/>
      <point x="505" y="274" type="curve" smooth="yes"/>
      <point x="505" y="181"/>
      <point x="449" y="116"/>
    </contour>
  </outline>
</glyph>
<glyph name="Hbar" format="2">
  <advance width="800"/>
  <unicode hex="0126"/>
  <anchor x="400" y="0" name="bottom"/>
  <anchor x="400" y="606" name="center"/>
  <anchor x="400" y="730" name="top"/>
  <outline>
    <contour>
      <point x="29" y="539" type="line"/>
      <point x="770" y="539" type="line"/>
      <point x="770" y="652" type="line"/>
      <point x="29" y="652" type="line"/>
    </contour>
    <component base="H"/>
  </outline>
</glyph>
<glyph name="idotless" format="2">
  <advance width="333"/>
  <unicode hex="0131"/>
  <anchor x="179" y="0" name="bottom"/>
  <anchor x="241" y="10" name="ogonek"/>
  <anchor x="153" y="547" name="top"/>
  <outline>
    <contour>
      <point x="99" y="0" type="line"/>
      <point x="259" y="0" type="line"/>
      <point x="259" y="547" type="line"/>
      <point x="99" y="547" type="line"/>
    </contour>
    <contour>
      <point x="26" y="430" type="line"/>
      <point x="259" y="430" type="line"/>
      <point x="259" y="547" type="line"/>
      <point x="26" y="547" type="line"/>
    </contour>
  </outline>
</glyph>
<glyph name="Eng" format="2">
  <advance width="876"/>
  <unicode hex="014A"/>
  <outline>
    <contour>
      <point x="443" y="-240" type="line"/>
      <point x="546" y="-240" type="line" smooth="yes"/>
      <point x="725" y="-240"/>
      <point x="794" y="-152"/>
      <point x="794" y="2" type="curve" smooth="yes"/>
      <point x="794" y="730" type="line"/>
      <point x="640" y="730" type="line"/>
      <point x="640" y="130" type="line"/>
      <point x="660" y="148" type="line"/>
      <point x="620" y="148" type="line"/>
      <point x="350" y="730" type="line"/>
      <point x="82" y="730" type="line"/>
      <point x="82" y="0" type="line"/>
      <point x="234" y="0" type="line"/>
      <point x="234" y="615" type="line"/>
      <point x="214" y="597" type="line"/>
      <point x="248" y="597" type="line"/>
      <point x="516" y="17" type="line"/>
      <point x="673" y="17" type="line"/>
      <point x="643" y="44" type="line"/>
      <point x="643" y="-5" type="line" smooth="yes"/>
      <point x="643" y="-74"/>
      <point x="611" y="-98"/>
      <point x="557" y="-98" type="curve" smooth="yes"/>
      <point x="443" y="-98" type="line"/>
    </contour>
  </outline>
</glyph>
<glyph name="eng" format="2">
  <advance width="652"/>
  <unicode hex="014B"/>
  <anchor x="331" y="0" name="bottom"/>
  <anchor x="333" y="547" name="top"/>
  <outline>
    <contour>
      <point x="310" y="-203" type="line"/>
      <point x="356" y="-203" type="line" smooth="yes"/>
      <point x="517" y="-203"/>
      <point x="589" y="-143"/>
      <point x="589" y="-4" type="curve" smooth="yes"/>
      <point x="589" y="30" type="line"/>
      <point x="429" y="30" type="line"/>
      <point x="429" y="-7" type="line" smooth="yes"/>
      <point x="429" y="-45"/>
      <point x="412" y="-68"/>
      <point x="362" y="-68" type="curve" smooth="yes"/>
      <point x="310" y="-68" type="line"/>
    </contour>
    <component base="n"/>
  </outline>
</glyph>
<glyph name="OE" format="2">
  <advance width="1045"/>
  <unicode hex="0152"/>
  <outline>
    <contour>
      <point x="434" y="-21" type="curve" smooth="yes"/>
      <point x="490" y="-21"/>
      <point x="535" y="-13"/>
      <point x="569" y="0" type="curve"/>
      <point x="692" y="0" type="line"/>
      <point x="692" y="730" type="line"/>
      <point x="569" y="730" type="line"/>
      <point x="533" y="743"/>
      <point x="485" y="751"/>
      <point x="434" y="751" type="curve" smooth="yes"/>
      <point x="172" y="751"/>
      <point x="43" y="558"/>
      <point x="43" y="377" type="curve" smooth="yes"/>
      <point x="43" y="355" type="line" smooth="yes"/>
      <point x="43" y="191"/>
      <point x="164" y="-21"/>
    </contour>
    <contour>
      <point x="434" y="131" type="curve" smooth="yes"/>
      <point x="295" y="131"/>
      <point x="209" y="235"/>
      <point x="209" y="365" type="curve" smooth="yes"/>
      <point x="209" y="501"/>
      <point x="295" y="599"/>
      <point x="434" y="599" type="curve" smooth="yes"/>
      <point x="477" y="599"/>
      <point x="519" y="590"/>
      <point x="550" y="575" type="curve"/>
      <point x="533" y="599" type="line"/>
      <point x="533" y="129" type="line"/>
      <point x="550" y="156" type="line"/>
      <point x="521" y="141"/>
      <point x="475" y="131"/>
    </contour>
    <contour>
      <point x="672" y="0" type="line"/>
      <point x="992" y="0" type="line"/>
      <point x="992" y="136" type="line"/>
      <point x="672" y="136" type="line"/>
    </contour>
    <contour>
      <point x="672" y="303" type="line"/>
      <point x="969" y="303" type="line"/>
      <point x="969" y="439" type="line"/>
      <point x="672" y="439" type="line"/>
    </contour>
    <contour>
      <point x="672" y="594" type="line"/>
      <point x="985" y="594" type="line"/>
      <point x="985" y="730" type="line"/>
      <point x="672" y="730" type="line"/>
    </contour>
  </outline>
</glyph>
<glyph name="oe" format="2">
  <advance width="1066"/>
  <unicode hex="0153"/>
  <outline>
    <contour>
      <point x="336" y="-18" type="curve" smooth="yes"/>
      <point x="531" y="-18"/>
      <point x="609" y="116"/>
      <point x="612" y="263" type="curve"/>
      <point x="510" y="263" type="line"/>
      <point x="510" y="125"/>
      <point x="582" y="-19"/>
      <point x="770" y="-19" type="curve" smooth="yes"/>
      <point x="907" y="-19"/>
      <point x="999" y="57"/>
      <point x="1023" y="169" type="curve"/>
      <point x="876" y="169" type="line"/>
      <point x="864" y="134"/>
      <point x="824" y="111"/>
      <point x="766" y="111" type="curve" smooth="yes"/>
      <point x="671" y="111"/>
      <point x="629" y="176"/>
      <point x="629" y="273" type="curve" smooth="yes"/>
      <point x="629" y="377"/>
      <point x="676" y="436"/>
      <point x="760" y="436" type="curve" smooth="yes"/>
      <point x="841" y="436"/>
      <point x="884" y="380"/>
      <point x="884" y="282" type="curve"/>
      <point x="937" y="322" type="line"/>
      <point x="621" y="322" type="line"/>
      <point x="621" y="233" type="line"/>
      <point x="1033" y="233" type="line"/>
      <point x="1033" y="286" type="line" smooth="yes"/>
      <point x="1033" y="434"/>
      <point x="940" y="567"/>
      <point x="764" y="567" type="curve" smooth="yes"/>
      <point x="585" y="567"/>
      <point x="510" y="429"/>
      <point x="510" y="284" type="curve"/>
      <point x="612" y="284" type="line"/>
      <point x="612" y="437"/>
      <point x="524" y="567"/>
      <point x="336" y="567" type="curve" smooth="yes"/>
      <point x="149" y="567"/>
      <point x="39" y="438"/>
      <point x="39" y="284" type="curve" smooth="yes"/>
      <point x="39" y="262" type="line" smooth="yes"/>
      <point x="39" y="114"/>
      <point x="143" y="-18"/>
    </contour>
    <contour>
      <point x="340" y="117" type="curve" smooth="yes"/>
      <point x="248" y="117"/>
      <point x="199" y="184"/>
      <point x="199" y="273" type="curve" smooth="yes"/>
      <point x="199" y="364"/>
      <point x="251" y="432"/>
      <point x="340" y="432" type="curve" smooth="yes"/>
      <point x="429" y="432"/>
      <point x="481" y="364"/>
      <point x="481" y="273" type="curve" smooth="yes"/>
      <point x="481" y="184"/>
      <point x="432" y="117"/>
    </contour>
  </outline>
</glyph>
<glyph name="jdotless" format="2">
  <advance width="339"/>
  <unicode hex="0237"/>
  <anchor x="160" y="-300" name="bottom"/>
  <anchor x="156" y="547" name="top"/>
  <outline>
    <contour>
      <point x="4" y="-205" type="line"/>
      <point x="33" y="-205" type="line" smooth="yes"/>
      <point x="198" y="-205"/>
      <point x="269" y="-148"/>
      <point x="269" y="10" type="curve" smooth="yes"/>
      <point x="269" y="547" type="line"/>
      <point x="114" y="547" type="line"/>
      <point x="114" y="5" type="line" smooth="yes"/>
      <point x="114" y="-44"/>
      <point x="88" y="-70"/>
      <point x="39" y="-70" type="curve" smooth="yes"/>
      <point x="4" y="-70" type="line"/>
    </contour>
    <contour>
      <point x="38" y="430" type="line"/>
      <point x="269" y="430" type="line"/>
      <point x="269" y="547" type="line"/>
      <point x="38" y="547" type="line"/>
    </contour>
  </outline>
</glyph>
<glyph name="gravecomb" format="2">
  <unicode hex="0300"/>
  <anchor x="181" y="547" name="_top"/>
  <anchor x="85" y="820" name="top"/>
  <outline>
    <contour>
      <point x="113" y="612" type="line"/>
      <point x="256" y="612" type="line"/>
      <point x="168" y="820" type="line"/>
      <point x="0" y="820" type="line"/>
    </contour>
  </outline>
</glyph>
<glyph name="tildecomb" format="2">
  <unicode hex="0303"/>
  <anchor x="185" y="547" name="_top"/>
  <anchor x="185" y="782" name="top"/>
  <outline>
    <contour>
      <point x="263" y="624" type="curve" smooth="yes"/>
      <point x="313" y="624"/>
      <point x="347" y="645"/>
      <point x="370" y="669" type="curve"/>
      <point x="346" y="778" type="line"/>
      <point x="326" y="757"/>
      <point x="299" y="742"/>
      <point x="264" y="742" type="curve" smooth="yes"/>
      <point x="203" y="742"/>
      <point x="185" y="793"/>
      <point x="105" y="793" type="curve" smooth="yes"/>
      <point x="56" y="793"/>
      <point x="23" y="772"/>
      <point x="0" y="748" type="curve"/>
      <point x="23" y="639" type="line"/>
      <point x="43" y="660"/>
      <point x="69" y="675"/>
      <point x="105" y="675" type="curve" smooth="yes"/>
      <point x="166" y="675"/>
      <point x="184" y="624"/>
    </contour>
  </outline>
</glyph>
<glyph name="dotaccentcomb" format="2">
  <unicode hex="0307"/>
  <anchor x="84" y="547" name="_top"/>
  <anchor x="84" y="820" name="top"/>
  <outline>
    <contour>
      <point x="84" y="631" type="curve" smooth="yes"/>
      <point x="143" y="631"/>
      <point x="169" y="667"/>
      <point x="169" y="714" type="curve" smooth="yes"/>
      <point x="169" y="762"/>
      <point x="143" y="798"/>
      <point x="84" y="798" type="curve" smooth="yes"/>
      <point x="25" y="798"/>
      <point x="0" y="762"/>
      <point x="0" y="714" type="curve" smooth="yes"/>
      <point x="0" y="667"/>
      <point x="25" y="631"/>
    </contour>
  </outline>
</glyph>
<glyph name="hungarumlautcomb" format="2">
  <unicode hex="030B"/>
  <anchor x="152" y="547" name="_top"/>
  <anchor x="226" y="820" name="top"/>
  <outline>
    <contour>
      <point x="181" y="612" type="line"/>
      <point x="297" y="612" type="line"/>
      <point x="388" y="820" type="line"/>
      <point x="262" y="820" type="line"/>
    </contour>
    <contour>
      <point x="0" y="612" type="line"/>
      <point x="116" y="612" type="line"/>
      <point x="207" y="820" type="line"/>
      <point x="81" y="820" type="line"/>
    </contour>
  </outline>
</glyph>
<glyph name="commaturnedabovecomb" format="2">
  <unicode hex="0312"/>
  <anchor x="87" y="547" name="_top"/>
  <anchor x="86" y="782" name="top"/>
  <outline>
    <contour>
      <point x="94" y="596" type="curve" smooth="yes"/>
      <point x="135" y="596"/>
      <point x="172" y="617"/>
      <point x="172" y="666" type="curve" smooth="yes"/>
      <point x="172" y="707"/>
      <point x="146" y="729"/>
      <point x="111" y="729" type="curve" smooth="yes"/>
      <point x="84" y="729"/>
      <point x="66" y="715"/>
      <point x="58" y="698" type="curve"/>
      <point x="84" y="696" type="line"/>
      <point x="83" y="724" type="line" smooth="yes"/>
      <point x="83" y="754"/>
      <point x="98" y="778"/>
      <point x="142" y="778" type="curve" smooth="yes"/>
      <point x="166" y="778" type="line"/>
      <point x="166" y="855" type="line"/>
      <point x="144" y="855" type="line" smooth="yes"/>
      <point x="56" y="855"/>
      <point x="0" y="807"/>
      <point x="0" y="718" type="curve" smooth="yes"/>
      <point x="0" y="712" type="line" smooth="yes"/>
      <point x="0" y="639"/>
      <point x="35" y="596"/>
    </contour>
  </outline>
</glyph>
<glyph name="cedillacomb" format="2">
  <unicode hex="0327"/>
  <anchor x="124" y="0" name="_bottom"/>
  <anchor x="118" y="-300" name="bottom"/>
  <outline>
    <contour>
      <point x="119" y="-270" type="curve" smooth="yes"/>
      <point x="220" y="-270"/>
      <point x="274" y="-216"/>
      <point x="274" y="-147" type="curve" smooth="yes"/>
      <point x="274" y="-79"/>
      <point x="219" y="-44"/>
      <point x="128" y="-44" type="curve" smooth="yes"/>
      <point x="114" y="-44" type="line"/>
      <point x="171" y="-86" type="line"/>
      <point x="171" y="13" type="line"/>
      <point x="74" y="13" type="line"/>
      <point x="74" y="-121" type="line"/>
      <point x="127" y="-121" type="line" smooth="yes"/>
      <point x="157" y="-121"/>
      <point x="169" y="-130"/>
      <point x="169" y="-144" type="curve" smooth="yes"/>
      <point x="169" y="-161"/>
      <point x="150" y="-172"/>
      <point x="113" y="-172" type="curve" smooth="yes"/>
      <point x="84" y="-172"/>
      <point x="58" y="-167"/>
      <point x="39" y="-160" type="curve"/>
      <point x="39" y="-258" type="line"/>
      <point x="56" y="-264"/>
      <point x="88" y="-270"/>
    </contour>
  </outline>
</glyph>
<glyph name="strokeshortcomb" format="2">
  <unicode hex="0335"/>
  <anchor x="150" y="267" name="_center"/>
  <outline>
    <contour>
      <point x="-33" y="224" type="line"/>
      <point x="333" y="224" type="line"/>
      <point x="333" y="310" type="line"/>
      <point x="-33" y="310" type="line"/>
    </contour>
  </outline>
</glyph>
<glyph name="riel-khmer" format="2">
  <advance width="538"/>
  <unicode hex="17DB"/>
  <outline>
    <contour>
      <point x="261" y="-7" type="curve" smooth="yes"/>
      <point x="391" y="-7" type="line"/>
      <point x="391" y="367" type="line"/>
      <point x="267" y="367" type="line"/>
      <point x="265" y="52" type="line"/>
      <point x="300" y="91" type="line"/>
      <point x="259" y="91" type="line" smooth="yes"/>
      <point x="216" y="91"/>
      <point x="184" y="111"/>
      <point x="184" y="148" type="curve" smooth="yes"/>
      <point x="184" y="185"/>
      <point x="216" y="203"/>
      <point x="273" y="203" type="curve"/>
      <point x="273" y="300" type="line"/>
      <point x="132" y="300"/>
      <point x="54" y="244"/>
      <point x="54" y="146" type="curve" smooth="yes"/>
      <point x="54" y="47"/>
      <point x="131" y="-7"/>
    </contour>
    <contour>
      <point x="128" y="339" type="line"/>
      <point x="500" y="339" type="line"/>
      <point x="500" y="435" type="line"/>
      <point x="128" y="435" type="line"/>
    </contour>
    <contour>
      <point x="267" y="406" type="line"/>
      <point x="391" y="406" type="line"/>
      <point x="391" y="439" type="line" smooth="yes"/>
      <point x="391" y="497"/>
      <point x="370" y="526"/>
      <point x="330" y="550" type="curve" smooth="yes"/>
      <point x="300" y="567"/>
      <point x="254" y="592"/>
      <point x="240" y="600" type="curve" smooth="yes"/>
      <point x="230" y="606"/>
      <point x="229" y="614"/>
      <point x="233" y="624" type="curve" smooth="yes"/>
      <point x="237" y="634"/>
      <point x="243" y="637"/>
      <point x="262" y="637" type="curve" smooth="yes"/>
      <point x="328" y="637"/>
      <point x="377" y="631"/>
      <point x="431" y="623" type="curve"/>
      <point x="431" y="734" type="line"/>
      <point x="377" y="742"/>
      <point x="323" y="747"/>
      <point x="269" y="747" type="curve" smooth="yes"/>
      <point x="184" y="747"/>
      <point x="143" y="732"/>
      <point x="119" y="671" type="curve" smooth="yes"/>
      <point x="94" y="610"/>
      <point x="107" y="551"/>
      <point x="162" y="517" type="curve" smooth="yes"/>
      <point x="184" y="505"/>
      <point x="225" y="483"/>
      <point x="250" y="468" type="curve" smooth="yes"/>
      <point x="263" y="460"/>
      <point x="267" y="452"/>
      <point x="267" y="439" type="curve" smooth="yes"/>
    </contour>
  </outline>
</glyph>
<glyph name="Germandbls" format="2">
  <advance width="1302"/>
  <unicode hex="1E9E"/>
  <outline>
    <contour>
      <point x="332" y="-20" type="curve" smooth="yes"/>
      <point x="515" y="-20"/>
      <point x="626" y="73"/>
      <point x="626" y="214" type="curve" smooth="yes"/>
      <point x="626" y="348"/>
      <point x="518" y="425"/>
      <point x="359" y="439" type="curve" smooth="yes"/>
      <point x="306" y="444" type="line" smooth="yes"/>
      <point x="240" y="449"/>
      <point x="215" y="482"/>
      <point x="215" y="523" type="curve" smooth="yes"/>
      <point x="215" y="572"/>
      <point x="249" y="612"/>
      <point x="319" y="612" type="curve" smooth="yes"/>
      <point x="391" y="612"/>
      <point x="431" y="567"/>
      <point x="431" y="514" type="curve"/>
      <point x="590" y="514" type="line"/>
      <point x="590" y="658"/>
      <point x="489" y="750"/>
      <point x="319" y="750" type="curve" smooth="yes"/>
      <point x="159" y="750"/>
      <point x="55" y="664"/>
      <point x="55" y="523" type="curve" smooth="yes"/>
      <point x="55" y="388"/>
      <point x="153" y="313"/>
      <point x="290" y="301" type="curve" smooth="yes"/>
      <point x="344" y="296" type="line" smooth="yes"/>
      <point x="432" y="288"/>
      <point x="467" y="259"/>
      <point x="467" y="214" type="curve" smooth="yes"/>
      <point x="467" y="159"/>
      <point x="420" y="118"/>
      <point x="332" y="118" type="curve" smooth="yes"/>
      <point x="231" y="118"/>
      <point x="189" y="169"/>
      <point x="189" y="224" type="curve"/>
      <point x="31" y="224" type="line"/>
      <point x="31" y="80"/>
      <point x="137" y="-20"/>
    </contour>
    <contour>
      <point x="977" y="-20" type="curve" smooth="yes"/>
      <point x="1161" y="-20"/>
      <point x="1271" y="73"/>
      <point x="1271" y="214" type="curve" smooth="yes"/>
      <point x="1271" y="349"/>
      <point x="1162" y="425"/>
      <point x="1004" y="439" type="curve" smooth="yes"/>
      <point x="949" y="444" type="line" smooth="yes"/>
      <point x="884" y="449"/>
      <point x="858" y="482"/>
      <point x="858" y="523" type="curve" smooth="yes"/>
      <point x="858" y="572"/>
      <point x="893" y="612"/>
      <point x="963" y="612" type="curve" smooth="yes"/>
      <point x="1035" y="612"/>
      <point x="1076" y="567"/>
      <point x="1076" y="514" type="curve"/>
      <point x="1234" y="514" type="line"/>
      <point x="1234" y="658"/>
      <point x="1133" y="750"/>
      <point x="963" y="750" type="curve" smooth="yes"/>
      <point x="803" y="750"/>
      <point x="699" y="664"/>
      <point x="699" y="523" type="curve" smooth="yes"/>
      <point x="699" y="388"/>
      <point x="797" y="312"/>
      <point x="934" y="301" type="curve" smooth="yes"/>
      <point x="988" y="296" type="line" smooth="yes"/>
      <point x="1075" y="288"/>
      <point x="1112" y="260"/>
      <point x="1112" y="214" type="curve" smooth="yes"/>
      <point x="1112" y="159"/>
      <point x="1065" y="118"/>
      <point x="977" y="118" type="curve" smooth="yes"/>
      <point x="878" y="118"/>
      <point x="837" y="169"/>
      <point x="837" y="224" type="curve"/>
      <point x="678" y="224" type="line"/>
      <point x="678" y="80"/>
      <point x="783" y="-20"/>
    </contour>
  </outline>
</glyph>
<glyph name="quoteright" format="2">
  <advance width="269"/>
  <unicode hex="2019"/>
  <outline>
    <contour>
      <point x="39" y="389" type="line"/>
      <point x="61" y="389" type="line" smooth="yes"/>
      <point x="174" y="389"/>
      <point x="236" y="444"/>
      <point x="236" y="585" type="curve" smooth="yes"/>
      <point x="236" y="600" type="line" smooth="yes"/>
      <point x="236" y="706"/>
      <point x="188" y="741"/>
      <point x="133" y="741" type="curve" smooth="yes"/>
      <point x="75" y="741"/>
      <point x="44" y="702"/>
      <point x="44" y="653" type="curve" smooth="yes"/>
      <point x="44" y="601"/>
      <point x="80" y="571"/>
      <point x="127" y="571" type="curve" smooth="yes"/>
      <point x="148" y="571"/>
      <point x="167" y="577"/>
      <point x="176" y="584" type="curve"/>
      <point x="145" y="646" type="line"/>
      <point x="145" y="573" type="line" smooth="yes"/>
      <point x="145" y="500"/>
      <point x="124" y="479"/>
      <point x="70" y="479" type="curve" smooth="yes"/>
      <point x="39" y="479" type="line"/>
    </contour>
  </outline>
</glyph>
<glyph name="minute" format="2">
  <advance width="268"/>
  <unicode hex="2032"/>
  <outline>
    <contour>
      <point x="33" y="421" type="line"/>
      <point x="178" y="421" type="line"/>
      <point x="235" y="730" type="line"/>
      <point x="90" y="730" type="line"/>
    </contour>
  </outline>
</glyph>
<glyph name="guilsinglleft" format="2">
  <advance width="362"/>
  <unicode hex="2039"/>
  <guideline x="27" y="261" angle="0.0"/>
  <guideline x="27" y="483" angle="0.0"/>
  <guideline x="27" y="39" angle="0.0"/>
  <outline>
    <contour>
      <point x="151" y="39" type="line"/>
      <point x="334" y="39" type="line"/>
      <point x="193" y="245" type="line"/>
      <point x="193" y="277" type="line"/>
      <point x="334" y="483" type="line"/>
      <point x="157" y="483" type="line"/>
      <point x="19" y="283" type="line"/>
      <point x="19" y="235" type="line"/>
    </contour>
  </outline>
</glyph>
<glyph name="euro" format="2">
  <advance width="712"/>
  <unicode hex="20AC"/>
  <outline>
    <contour>
      <point x="400" y="-17" type="curve" smooth="yes"/>
      <point x="587" y="-17"/>
      <point x="677" y="84"/>
      <point x="683" y="229" type="curve"/>
      <point x="542" y="229" type="line"/>
      <point x="537" y="157"/>
      <point x="493" y="113"/>
      <point x="400" y="113" type="curve" smooth="yes"/>
      <point x="284" y="113"/>
      <point x="230" y="183"/>
      <point x="230" y="365" type="curve" smooth="yes"/>
      <point x="230" y="547"/>
      <point x="280" y="617"/>
      <point x="394" y="617" type="curve" smooth="yes"/>
      <point x="485" y="617"/>
      <point x="531" y="573"/>
      <point x="536" y="501" type="curve"/>
      <point x="677" y="501" type="line"/>
      <point x="671" y="645"/>
      <point x="581" y="747"/>
      <point x="394" y="747" type="curve" smooth="yes"/>
      <point x="193" y="747"/>
      <point x="87" y="621"/>
      <point x="87" y="372" type="curve" smooth="yes"/>
      <point x="87" y="358" type="line" smooth="yes"/>
      <point x="87" y="109"/>
      <point x="198" y="-17"/>
    </contour>
    <contour>
      <point x="12" y="241" type="line"/>
      <point x="446" y="241" type="line"/>
      <point x="446" y="322" type="line"/>
      <point x="12" y="322" type="line"/>
    </contour>
    <contour>
      <point x="30" y="393" type="line"/>
      <point x="464" y="393" type="line"/>
      <point x="464" y="474" type="line"/>
      <point x="30" y="474" type="line"/>
    </contour>
  </outline>
</glyph>
<glyph name="trademark" format="2">
  <advance width="906"/>
  <unicode hex="2122"/>
  <outline>
    <contour>
      <point x="394" y="329" type="line"/>
      <point x="489" y="329" type="line"/>
      <point x="489" y="674" type="line"/>
      <point x="466" y="673" type="line"/>
      <point x="572" y="395" type="line"/>
      <point x="678" y="395" type="line"/>
      <point x="785" y="673" type="line"/>
      <point x="760" y="674" type="line"/>
      <point x="760" y="329" type="line"/>
      <point x="861" y="329" type="line"/>
      <point x="861" y="730" type="line"/>
      <point x="724" y="730" type="line"/>
      <point x="630" y="483" type="line"/>
      <point x="625" y="483" type="line"/>
      <point x="530" y="730" type="line"/>
      <point x="394" y="730" type="line"/>
    </contour>
    <contour>
      <point x="126" y="329" type="line"/>
      <point x="232" y="329" type="line"/>
      <point x="232" y="650" type="line"/>
      <point x="126" y="650" type="line"/>
    </contour>
    <contour>
      <point x="14" y="640" type="line"/>
      <point x="345" y="640" type="line"/>
      <point x="345" y="730" type="line"/>
      <point x="14" y="730" type="line"/>
    </contour>
  </outline>
</glyph>
<glyph name="lessequal" format="2">
  <advance width="590"/>
  <unicode hex="2264"/>
  <outline>
    <contour>
      <point x="70" y="25" type="line"/>
      <point x="526" y="25" type="line"/>
      <point x="526" y="150" type="line"/>
      <point x="70" y="150" type="line"/>
    </contour>
    <contour>
      <point x="526" y="204" type="line"/>
      <point x="526" y="335" type="line"/>
      <point x="70" y="443" type="line"/>
      <point x="70" y="327" type="line"/>
    </contour>
    <contour>
      <point x="70" y="395" type="line"/>
      <point x="526" y="504" type="line"/>
      <point x="526" y="632" type="line"/>
      <point x="70" y="509" type="line"/>
    </contour>
    <contour>
      <point x="165" y="375" type="line"/>
      <point x="195" y="375" type="line"/>
      <point x="195" y="457" type="line"/>
      <point x="165" y="457" type="line"/>
    </contour>
  </outline>
</glyph>
<glyph name="sora" format="2">
  <advance width="837"/>
  <unicode hex="E000"/>
  <outline>
    <contour>
      <point x="175" y="-8" type="line"/>
      <point x="402" y="308" type="line"/>
      <point x="383" y="303" type="line"/>
      <point x="451" y="303" type="line"/>
      <point x="433" y="308" type="line"/>
      <point x="660" y="-8" type="line"/>
      <point x="774" y="72" type="line"/>
      <point x="497" y="449" type="line"/>
      <point x="341" y="449" type="line"/>
      <point x="63" y="72" type="line"/>
    </contour>
    <contour>
      <point x="79" y="449" type="line"/>
      <point x="759" y="449" type="line"/>
      <point x="759" y="544" type="line"/>
      <point x="79" y="544" type="line"/>
    </contour>
    <contour>
      <point x="343" y="489" type="line"/>
      <point x="494" y="489" type="line"/>
      <point x="494" y="674" type="line"/>
      <point x="343" y="674" type="line"/>
    </contour>
    <contour>
      <point x="79" y="635" type="line"/>
      <point x="759" y="635" type="line"/>
      <point x="759" y="730" type="line"/>
      <point x="79" y="730" type="line"/>
    </contour>
  </outline>
</glyph>
<glyph name="fl" format="2">
  <advance width="683"/>
  <unicode hex="FB02"/>
  <outline>
    <contour>
      <point x="84" y="0" type="line"/>
      <point x="232" y="0" type="line"/>
      <point x="232" y="554" type="line" smooth="yes"/>
      <point x="232" y="590"/>
      <point x="253" y="611"/>
      <point x="289" y="611" type="curve" smooth="yes"/>
      <point x="345" y="611" type="line"/>
      <point x="345" y="730" type="line"/>
      <point x="296" y="730" type="line" smooth="yes"/>
      <point x="156" y="730"/>
      <point x="84" y="669"/>
      <point x="84" y="543" type="curve" smooth="yes"/>
    </contour>
    <contour>
      <point x="20" y="416" type="line"/>
      <point x="349" y="416" type="line"/>
      <point x="349" y="532" type="line"/>
      <point x="20" y="532" type="line"/>
    </contour>
    <contour>
      <point x="449" y="0" type="line"/>
      <point x="609" y="0" type="line"/>
      <point x="609" y="730" type="line"/>
      <point x="449" y="730" type="line"/>
    </contour>
    <contour>
      <point x="390" y="612" type="line"/>
      <point x="609" y="612" type="line"/>
      <point x="609" y="730" type="line"/>
      <point x="390" y="730" type="line"/>
    </contour>
  </outline>
</glyph>
<glyph name="I.salt" format="2">
  <advance width="457"/>
  <anchor x="229" y="0" name="bottom"/>
  <anchor x="299" y="10" name="ogonek"/>
  <anchor x="229" y="730" name="top"/>
  <outline>
    <contour>
      <point x="147" y="104" type="line"/>
      <point x="310" y="104" type="line"/>
      <point x="310" y="626" type="line"/>
      <point x="147" y="626" type="line"/>
    </contour>
    <contour>
      <point x="66" y="0" type="line"/>
      <point x="391" y="0" type="line"/>
      <point x="391" y="124" type="line"/>
      <point x="66" y="124" type="line"/>
    </contour>
    <contour>
      <point x="66" y="606" type="line"/>
      <point x="391" y="606" type="line"/>
      <point x="391" y="730" type="line"/>
      <point x="66" y="730" type="line"/>
    </contour>
  </outline>
</glyph>
<glyph name="J.salt" format="2">
  <advance width="605"/>
  <anchor x="282" y="0" name="bottom"/>
  <anchor x="449" y="730" name="top"/>
  <outline>
    <contour>
      <point x="282" y="-21" type="curve" smooth="yes"/>
      <point x="444" y="-21"/>
      <point x="531" y="73"/>
      <point x="531" y="237" type="curve" smooth="yes"/>
      <point x="531" y="730" type="line"/>
      <point x="368" y="730" type="line"/>
      <point x="368" y="217" type="line" smooth="yes"/>
      <point x="368" y="164"/>
      <point x="335" y="131"/>
      <point x="282" y="131" type="curve" smooth="yes"/>
      <point x="230" y="131"/>
      <point x="196" y="164"/>
      <point x="196" y="217" type="curve" smooth="yes"/>
      <point x="196" y="331" type="line"/>
      <point x="32" y="331" type="line"/>
      <point x="32" y="237" type="line" smooth="yes"/>
      <point x="32" y="73"/>
      <point x="120" y="-21"/>
    </contour>
  </outline>
</glyph>
<glyph name="P.salt" format="2">
  <advance width="696"/>
  <outline>
    <contour>
      <point x="226" y="259" type="line"/>
      <point x="402" y="259" type="line" smooth="yes"/>
      <point x="565" y="259"/>
      <point x="675" y="337"/>
      <point x="675" y="489" type="curve" smooth="yes"/>
      <point x="675" y="505" type="line" smooth="yes"/>
      <point x="675" y="658"/>
      <point x="564" y="735"/>
      <point x="402" y="735" type="curve" smooth="yes"/>
      <point x="226" y="735" type="line"/>
      <point x="226" y="594" type="line"/>
      <point x="412" y="594" type="line" smooth="yes"/>
      <point x="476" y="594"/>
      <point x="510" y="559"/>
      <point x="510" y="497" type="curve" smooth="yes"/>
      <point x="510" y="436"/>
      <point x="477" y="401"/>
      <point x="412" y="401" type="curve" smooth="yes"/>
      <point x="226" y="401" type="line"/>
    </contour>
    <contour>
      <point x="82" y="0" type="line"/>
      <point x="246" y="0" type="line"/>
      <point x="246" y="735" type="line"/>
      <point x="82" y="735" type="line"/>
    </contour>
  </outline>
</glyph>
<glyph name="Q.salt" format="2">
  <advance width="865"/>
  <guideline x="431" y="360" angle="90.0"/>
  <anchor x="432" y="0" name="bottom"/>
  <anchor x="432" y="355" name="center"/>
  <anchor x="562" y="10" name="ogonek"/>
  <anchor x="432" y="730" name="top"/>
  <outline>
    <contour>
      <point x="628" y="-79" type="line"/>
      <point x="783" y="-79" type="line"/>
      <point x="508" y="300" type="line"/>
      <point x="353" y="300" type="line"/>
    </contour>
    <component base="O"/>
  </outline>
</glyph>
<glyph name="braceleft.case" format="2">
  <advance width="392"/>
  <outline>
    <contour>
      <point x="331" y="-118" type="curve" smooth="yes"/>
      <point x="357" y="-118" type="line"/>
      <point x="357" y="15" type="line"/>
      <point x="331" y="15" type="line" smooth="yes"/>
      <point x="288" y="15"/>
      <point x="270" y="36"/>
      <point x="270" y="77" type="curve" smooth="yes"/>
      <point x="270" y="220" type="line" smooth="yes"/>
      <point x="270" y="298"/>
      <point x="235" y="333"/>
      <point x="167" y="339" type="curve"/>
      <point x="167" y="353" type="line"/>
      <point x="235" y="359"/>
      <point x="270" y="394"/>
      <point x="270" y="472" type="curve" smooth="yes"/>
      <point x="270" y="611" type="line" smooth="yes"/>
      <point x="270" y="652"/>
      <point x="288" y="673"/>
      <point x="331" y="673" type="curve" smooth="yes"/>
      <point x="357" y="673" type="line"/>
      <point x="357" y="806" type="line"/>
      <point x="331" y="806" type="line" smooth="yes"/>
      <point x="201" y="806"/>
      <point x="118" y="747"/>
      <point x="118" y="611" type="curve" smooth="yes"/>
      <point x="118" y="478" type="line" smooth="yes"/>
      <point x="118" y="437"/>
      <point x="92" y="417"/>
      <point x="43" y="417" type="curve"/>
      <point x="43" y="275" type="line"/>
      <point x="92" y="275"/>
      <point x="118" y="255"/>
      <point x="118" y="214" type="curve" smooth="yes"/>
      <point x="118" y="77" type="line" smooth="yes"/>
      <point x="118" y="-59"/>
      <point x="201" y="-118"/>
    </contour>
  </outline>
</glyph>
<glyph name="brevecomb.case" format="2">
  <anchor x="192" y="730" name="_top"/>
  <anchor x="193" y="964" name="top"/>
  <outline>
    <contour>
      <point x="192" y="775" type="curve" smooth="yes"/>
      <point x="316" y="775"/>
      <point x="378" y="850"/>
      <point x="383" y="964" type="curve"/>
      <point x="273" y="964" type="line"/>
      <point x="271" y="914"/>
      <point x="246" y="882"/>
      <point x="192" y="882" type="curve" smooth="yes"/>
      <point x="138" y="882"/>
      <point x="116" y="914"/>
      <point x="114" y="964" type="curve"/>
      <point x="0" y="964" type="line"/>
      <point x="4" y="850"/>
      <point x="68" y="775"/>
    </contour>
  </outline>
</glyph>
<glyph name="caroncomb.alt" format="2">
  <anchor x="0" y="547" name="_topright"/>
  <outline>
    <contour>
      <point x="59" y="575" type="line"/>
      <point x="179" y="575" type="line"/>
      <point x="195" y="833" type="line"/>
      <point x="59" y="833" type="line"/>
    </contour>
  </outline>
</glyph>
<glyph name="caroncomb.case" format="2">
  <anchor x="227" y="730" name="_top"/>
  <anchor x="227" y="964" name="top"/>
  <outline>
    <contour>
      <point x="132" y="785" type="line"/>
      <point x="320" y="785" type="line"/>
      <point x="447" y="964" type="line"/>
      <point x="305" y="964" type="line"/>
      <point x="236" y="861" type="line"/>
      <point x="219" y="861" type="line"/>
      <point x="146" y="964" type="line"/>
      <point x="0" y="964" type="line"/>
    </contour>
  </outline>
</glyph>
<glyph name="cent.tnum" format="2">
  <advance width="669"/>
  <outline>
    <contour>
      <point x="346" y="93" type="curve" smooth="yes"/>
      <point x="497" y="93"/>
      <point x="600" y="178"/>
      <point x="609" y="313" type="curve"/>
      <point x="457" y="313" type="line"/>
      <point x="450" y="261"/>
      <point x="408" y="225"/>
      <point x="345" y="225" type="curve" smooth="yes"/>
      <point x="265" y="225"/>
      <point x="224" y="280"/>
      <point x="224" y="364" type="curve" smooth="yes"/>
      <point x="224" y="451"/>
      <point x="270" y="505"/>
      <point x="345" y="505" type="curve" smooth="yes"/>
      <point x="406" y="505"/>
      <point x="447" y="469"/>
      <point x="453" y="422" type="curve"/>
      <point x="604" y="422" type="line"/>
      <point x="594" y="556"/>
      <point x="494" y="638"/>
      <point x="346" y="638" type="curve" smooth="yes"/>
      <point x="170" y="638"/>
      <point x="69" y="520"/>
      <point x="69" y="374" type="curve" smooth="yes"/>
      <point x="69" y="354" type="line" smooth="yes"/>
      <point x="69" y="214"/>
      <point x="167" y="93"/>
    </contour>
    <contour>
      <point x="283" y="0" type="line"/>
      <point x="414" y="0" type="line"/>
      <point x="414" y="146" type="line"/>
      <point x="283" y="146" type="line"/>
    </contour>
    <contour>
      <point x="283" y="577" type="line"/>
      <point x="414" y="577" type="line"/>
      <point x="414" y="723" type="line"/>
      <point x="283" y="723" type="line"/>
    </contour>
  </outline>
</glyph>
<glyph name="commaturnedabovecomb.case" format="2">
  <anchor x="96" y="720" name="_top"/>
  <anchor x="96" y="916" name="top"/>
  <outline>
    <contour>
      <point x="97" y="757" type="curve" smooth="yes"/>
      <point x="140" y="757"/>
      <point x="177" y="777"/>
      <point x="177" y="825" type="curve" smooth="yes"/>
      <point x="177" y="867"/>
      <point x="151" y="889"/>
      <point x="115" y="889" type="curve" smooth="yes"/>
      <point x="87" y="889"/>
      <point x="70" y="876"/>
      <point x="61" y="859" type="curve"/>
      <point x="84" y="856" type="line"/>
      <point x="83" y="880" type="line" smooth="yes"/>
      <point x="83" y="909"/>
      <point x="103" y="928"/>
      <point x="145" y="928" type="curve" smooth="yes"/>
      <point x="169" y="928" type="line"/>
      <point x="169" y="1005" type="line"/>
      <point x="147" y="1005" type="line" smooth="yes"/>
      <point x="61" y="1005"/>
      <point x="0" y="964"/>
      <point x="0" y="877" type="curve" smooth="yes"/>
      <point x="0" y="871" type="line" smooth="yes"/>
      <point x="0" y="799"/>
      <point x="36" y="757"/>
    </contour>
  </outline>
</glyph>
<glyph name="currency.tnum" format="2">
  <advance width="669"/>
  <outline>
    <contour>
      <point x="335" y="135" type="curve" smooth="yes"/>
      <point x="479" y="135"/>
      <point x="569" y="243"/>
      <point x="569" y="357" type="curve" smooth="yes"/>
      <point x="569" y="373" type="line" smooth="yes"/>
      <point x="569" y="489"/>
      <point x="479" y="595"/>
      <point x="335" y="595" type="curve" smooth="yes"/>
      <point x="190" y="595"/>
      <point x="101" y="489"/>
      <point x="101" y="373" type="curve" smooth="yes"/>
      <point x="101" y="357" type="line" smooth="yes"/>
      <point x="101" y="243"/>
      <point x="190" y="135"/>
    </contour>
    <contour>
      <point x="126" y="65" type="line"/>
      <point x="236" y="176" type="line"/>
      <point x="145" y="268" type="line"/>
      <point x="35" y="158" type="line"/>
    </contour>
    <contour>
      <point x="145" y="460" type="line"/>
      <point x="236" y="553" type="line"/>
      <point x="126" y="663" type="line"/>
      <point x="35" y="571" type="line"/>
    </contour>
    <contour>
      <point x="335" y="257" type="curve" smooth="yes"/>
      <point x="269" y="257"/>
      <point x="237" y="302"/>
      <point x="237" y="365" type="curve" smooth="yes"/>
      <point x="237" y="431"/>
      <point x="271" y="473"/>
      <point x="335" y="473" type="curve" smooth="yes"/>
      <point x="399" y="473"/>
      <point x="432" y="431"/>
      <point x="432" y="365" type="curve" smooth="yes"/>
      <point x="432" y="302"/>
      <point x="401" y="257"/>
    </contour>
    <contour>
      <point x="544" y="65" type="line"/>
      <point x="634" y="158" type="line"/>
      <point x="524" y="268" type="line"/>
      <point x="433" y="176" type="line"/>
    </contour>
    <contour>
      <point x="524" y="460" type="line"/>
      <point x="634" y="571" type="line"/>
      <point x="544" y="663" type="line"/>
      <point x="433" y="553" type="line"/>
    </contour>
  </outline>
</glyph>
<glyph name="divide.tnum" format="2">
  <advance width="669"/>
  <outline>
    <contour>
      <point x="74" y="279" type="line"/>
      <point x="595" y="279" type="line"/>
      <point x="595" y="409" type="line"/>
      <point x="74" y="409" type="line"/>
    </contour>
    <contour>
      <point x="260" y="60" type="line"/>
      <point x="409" y="60" type="line"/>
      <point x="409" y="206" type="line"/>
      <point x="260" y="206" type="line"/>
    </contour>
    <contour>
      <point x="260" y="482" type="line"/>
      <point x="409" y="482" type="line"/>
      <point x="409" y="628" type="line"/>
      <point x="260" y="628" type="line"/>
    </contour>
  </outline>
</glyph>
<glyph name="dollar.tnum" format="2">
  <advance width="669"/>
  <outline>
    <contour>
      <point x="350" y="-5" type="curve" smooth="yes"/>
      <point x="530" y="-5"/>
      <point x="630" y="74"/>
      <point x="630" y="211" type="curve" smooth="yes"/>
      <point x="630" y="343"/>
      <point x="531" y="417"/>
      <point x="375" y="431" type="curve" smooth="yes"/>
      <point x="324" y="435" type="line" smooth="yes"/>
      <point x="258" y="441"/>
      <point x="233" y="479"/>
      <point x="233" y="520" type="curve" smooth="yes"/>
      <point x="233" y="568"/>
      <point x="269" y="601"/>
      <point x="336" y="601" type="curve" smooth="yes"/>
      <point x="409" y="601"/>
      <point x="447" y="556"/>
      <point x="447" y="501" type="curve"/>
      <point x="594" y="501" type="line"/>
      <point x="594" y="645"/>
      <point x="505" y="728"/>
      <point x="336" y="728" type="curve" smooth="yes"/>
      <point x="178" y="728"/>
      <point x="86" y="656"/>
      <point x="86" y="520" type="curve" smooth="yes"/>
      <point x="86" y="387"/>
      <point x="170" y="315"/>
      <point x="310" y="302" type="curve" smooth="yes"/>
      <point x="361" y="298" type="line" smooth="yes"/>
      <point x="447" y="290"/>
      <point x="483" y="257"/>
      <point x="483" y="211" type="curve" smooth="yes"/>
      <point x="483" y="158"/>
      <point x="435" y="122"/>
      <point x="350" y="122" type="curve" smooth="yes"/>
      <point x="251" y="122"/>
      <point x="210" y="171"/>
      <point x="210" y="229" type="curve"/>
      <point x="64" y="229" type="line"/>
      <point x="64" y="86"/>
      <point x="157" y="-5"/>
    </contour>
    <contour>
      <point x="279" y="-129" type="line"/>
      <point x="410" y="-129" type="line"/>
      <point x="410" y="17" type="line"/>
      <point x="279" y="17" type="line"/>
    </contour>
    <contour>
      <point x="275" y="681" type="line"/>
      <point x="406" y="681" type="line"/>
      <point x="406" y="827" type="line"/>
      <point x="275" y="827" type="line"/>
    </contour>
  </outline>
</glyph>
<glyph name="dotaccentcomb.case" format="2">
  <anchor x="88" y="730" name="_top"/>
  <anchor x="88" y="962" name="top"/>
  <outline>
    <contour>
      <point x="88" y="796" type="curve" smooth="yes"/>
      <point x="148" y="796"/>
      <point x="176" y="830"/>
      <point x="176" y="878" type="curve" smooth="yes"/>
      <point x="176" y="927"/>
      <point x="148" y="961"/>
      <point x="88" y="961" type="curve" smooth="yes"/>
      <point x="28" y="961"/>
      <point x="0" y="927"/>
      <point x="0" y="878" type="curve" smooth="yes"/>
      <point x="0" y="830"/>
      <point x="28" y="796"/>
    </contour>
  </outline>
</glyph>
<glyph name="eight.tnum" format="2">
  <advance width="669"/>
  <outline>
    <contour>
      <point x="335" y="-21" type="curve" smooth="yes"/>
      <point x="511" y="-21"/>
      <point x="627" y="59"/>
      <point x="627" y="203" type="curve" smooth="yes"/>
      <point x="627" y="294"/>
      <point x="578" y="357"/>
      <point x="504" y="384" type="curve"/>
      <point x="504" y="396" type="line"/>
      <point x="562" y="420"/>
      <point x="605" y="470"/>
      <point x="605" y="550" type="curve" smooth="yes"/>
      <point x="605" y="684"/>
      <point x="491" y="751"/>
      <point x="335" y="751" type="curve" smooth="yes"/>
      <point x="179" y="751"/>
      <point x="64" y="684"/>
      <point x="64" y="550" type="curve" smooth="yes"/>
      <point x="64" y="469"/>
      <point x="107" y="420"/>
      <point x="166" y="396" type="curve"/>
      <point x="166" y="384" type="line"/>
      <point x="91" y="357"/>
      <point x="42" y="293"/>
      <point x="42" y="203" type="curve" smooth="yes"/>
      <point x="42" y="59"/>
      <point x="158" y="-21"/>
    </contour>
    <contour>
      <point x="335" y="113" type="curve" smooth="yes"/>
      <point x="254" y="113"/>
      <point x="200" y="150"/>
      <point x="200" y="221" type="curve" smooth="yes"/>
      <point x="200" y="292"/>
      <point x="253" y="329"/>
      <point x="335" y="329" type="curve" smooth="yes"/>
      <point x="416" y="329"/>
      <point x="469" y="292"/>
      <point x="469" y="221" type="curve" smooth="yes"/>
      <point x="469" y="150"/>
      <point x="415" y="113"/>
    </contour>
    <contour>
      <point x="335" y="449" type="curve" smooth="yes"/>
      <point x="266" y="449"/>
      <point x="222" y="478"/>
      <point x="222" y="534" type="curve" smooth="yes"/>
      <point x="222" y="589"/>
      <point x="265" y="617"/>
      <point x="335" y="617" type="curve" smooth="yes"/>
      <point x="405" y="617"/>
      <point x="447" y="589"/>
      <point x="447" y="534" type="curve" smooth="yes"/>
      <point x="447" y="478"/>
      <point x="404" y="449"/>
    </contour>
  </outline>
</glyph>
<glyph name="euro.tnum" format="2">
  <advance width="669"/>
  <outline>
    <contour>
      <point x="388" y="-17" type="curve" smooth="yes"/>
      <point x="572" y="-17"/>
      <point x="655" y="86"/>
      <point x="661" y="229" type="curve"/>
      <point x="520" y="229" type="line"/>
      <point x="515" y="158"/>
      <point x="477" y="113"/>
      <point x="388" y="113" type="curve" smooth="yes"/>
      <point x="276" y="113"/>
      <point x="228" y="186"/>
      <point x="228" y="365" type="curve" smooth="yes"/>
      <point x="228" y="544"/>
      <point x="272" y="617"/>
      <point x="382" y="617" type="curve" smooth="yes"/>
      <point x="468" y="617"/>
      <point x="507" y="572"/>
      <point x="512" y="501" type="curve"/>
      <point x="653" y="501" type="line"/>
      <point x="647" y="644"/>
      <point x="564" y="747"/>
      <point x="382" y="747" type="curve" smooth="yes"/>
      <point x="186" y="747"/>
      <point x="86" y="619"/>
      <point x="86" y="372" type="curve" smooth="yes"/>
      <point x="86" y="358" type="line" smooth="yes"/>
      <point x="86" y="111"/>
      <point x="190" y="-17"/>
    </contour>
    <contour>
      <point x="9" y="241" type="line"/>
      <point x="433" y="241" type="line"/>
      <point x="433" y="322" type="line"/>
      <point x="9" y="322" type="line"/>
    </contour>
    <contour>
      <point x="27" y="393" type="line"/>
      <point x="451" y="393" type="line"/>
      <point x="451" y="474" type="line"/>
      <point x="27" y="474" type="line"/>
    </contour>
  </outline>
</glyph>
<glyph name="f_f" format="2">
  <advance width="737"/>
  <outline>
    <contour>
      <point x="84" y="0" type="line"/>
      <point x="232" y="0" type="line"/>
      <point x="232" y="569" type="line" smooth="yes"/>
      <point x="232" y="605"/>
      <point x="253" y="626"/>
      <point x="289" y="626" type="curve" smooth="yes"/>
      <point x="346" y="626" type="line"/>
      <point x="346" y="746" type="line"/>
      <point x="296" y="746" type="line" smooth="yes"/>
      <point x="156" y="746"/>
      <point x="84" y="685"/>
      <point x="84" y="559" type="curve" smooth="yes"/>
    </contour>
    <contour>
      <point x="443" y="0" type="line"/>
      <point x="592" y="0" type="line"/>
      <point x="592" y="563" type="line" smooth="yes"/>
      <point x="592" y="599"/>
      <point x="612" y="620"/>
      <point x="649" y="620" type="curve" smooth="yes"/>
      <point x="722" y="620" type="line"/>
      <point x="722" y="740" type="line"/>
      <point x="656" y="740" type="line" smooth="yes"/>
      <point x="515" y="740"/>
      <point x="443" y="679"/>
      <point x="443" y="553" type="curve" smooth="yes"/>
    </contour>
    <contour>
      <point x="20" y="420" type="line"/>
      <point x="731" y="420" type="line"/>
      <point x="731" y="537" type="line"/>
      <point x="20" y="537" type="line"/>
    </contour>
  </outline>
</glyph>
<glyph name="f_f.salt" format="2">
  <advance width="766"/>
  <outline>
    <contour>
      <point x="84" y="0" type="line"/>
      <point x="232" y="0" type="line"/>
      <point x="232" y="595" type="line" smooth="yes"/>
      <point x="232" y="615"/>
      <point x="241" y="631"/>
      <point x="262" y="631" type="curve" smooth="yes"/>
      <point x="282" y="631"/>
      <point x="292" y="615"/>
      <point x="292" y="595" type="curve"/>
      <point x="411" y="595" type="line"/>
      <point x="411" y="687"/>
      <point x="348" y="744"/>
      <point x="249" y="744" type="curve" smooth="yes"/>
      <point x="146" y="744"/>
      <point x="84" y="683"/>
      <point x="84" y="588" type="curve" smooth="yes"/>
    </contour>
    <contour>
      <point x="455" y="0" type="line"/>
      <point x="603" y="0" type="line"/>
      <point x="603" y="601" type="line" smooth="yes"/>
      <point x="603" y="622"/>
      <point x="613" y="637"/>
      <point x="635" y="637" type="curve" smooth="yes"/>
      <point x="657" y="637"/>
      <point x="667" y="622"/>
      <point x="667" y="601" type="curve"/>
      <point x="794" y="601" type="line"/>
      <point x="794" y="695"/>
      <point x="728" y="750"/>
      <point x="626" y="750" type="curve" smooth="yes"/>
      <point x="520" y="750"/>
      <point x="455" y="691"/>
      <point x="455" y="594" type="curve" smooth="yes"/>
    </contour>
    <contour>
      <point x="20" y="419" type="line"/>
      <point x="748" y="419" type="line"/>
      <point x="748" y="536" type="line"/>
      <point x="20" y="536" type="line"/>
    </contour>
  </outline>
</glyph>
<glyph name="f_f_i" format="2">
  <advance width="1050"/>
  <outline>
    <contour>
      <point x="84" y="0" type="line"/>
      <point x="232" y="0" type="line"/>
      <point x="232" y="573" type="line" smooth="yes"/>
      <point x="232" y="609"/>
      <point x="253" y="630"/>
      <point x="289" y="630" type="curve" smooth="yes"/>
      <point x="346" y="630" type="line"/>
      <point x="346" y="750" type="line"/>
      <point x="296" y="750" type="line" smooth="yes"/>
      <point x="156" y="750"/>
      <point x="84" y="690"/>
      <point x="84" y="563" type="curve" smooth="yes"/>
    </contour>
    <contour>
      <point x="443" y="0" type="line"/>
      <point x="592" y="0" type="line"/>
      <point x="592" y="567" type="line" smooth="yes"/>
      <point x="592" y="603"/>
      <point x="612" y="624"/>
      <point x="649" y="624" type="curve" smooth="yes"/>
      <point x="721" y="624" type="line"/>
      <point x="721" y="744" type="line"/>
      <point x="656" y="744" type="line" smooth="yes"/>
      <point x="515" y="744"/>
      <point x="443" y="684"/>
      <point x="443" y="557" type="curve" smooth="yes"/>
    </contour>
    <contour>
      <point x="815" y="0" type="line"/>
      <point x="975" y="0" type="line"/>
      <point x="975" y="547" type="line"/>
      <point x="815" y="547" type="line"/>
    </contour>
    <contour>
      <point x="20" y="426" type="line"/>
      <point x="707" y="426" type="line"/>
      <point x="707" y="543" type="line"/>
      <point x="20" y="543" type="line"/>
    </contour>
    <contour>
      <point x="751" y="430" type="line"/>
      <point x="975" y="430" type="line"/>
      <point x="975" y="547" type="line"/>
      <point x="751" y="547" type="line"/>
    </contour>
    <contour>
      <point x="877" y="602" type="curve" smooth="yes"/>
      <point x="937" y="602"/>
      <point x="965" y="637"/>
      <point x="965" y="685" type="curve" smooth="yes"/>
      <point x="965" y="734"/>
      <point x="937" y="768"/>
      <point x="877" y="768" type="curve" smooth="yes"/>
      <point x="817" y="768"/>
      <point x="790" y="734"/>
      <point x="790" y="685" type="curve" smooth="yes"/>
      <point x="790" y="637"/>
      <point x="817" y="602"/>
    </contour>
  </outline>
</glyph>
<glyph name="f_f_i.salt" format="2">
  <advance width="1062"/>
  <outline>
    <contour>
      <point x="84" y="0" type="line"/>
      <point x="232" y="0" type="line"/>
      <point x="232" y="596" type="line" smooth="yes"/>
      <point x="232" y="615"/>
      <point x="241" y="631"/>
      <point x="262" y="631" type="curve" smooth="yes"/>
      <point x="282" y="631"/>
      <point x="292" y="615"/>
      <point x="292" y="596" type="curve"/>
      <point x="411" y="596" type="line"/>
      <point x="411" y="688"/>
      <point x="348" y="744"/>
      <point x="249" y="744" type="curve" smooth="yes"/>
      <point x="146" y="744"/>
      <point x="84" y="684"/>
      <point x="84" y="588" type="curve" smooth="yes"/>
    </contour>
    <contour>
      <point x="455" y="0" type="line"/>
      <point x="603" y="0" type="line"/>
      <point x="603" y="602" type="line" smooth="yes"/>
      <point x="603" y="622"/>
      <point x="613" y="637"/>
      <point x="634" y="637" type="curve" smooth="yes"/>
      <point x="654" y="637"/>
      <point x="665" y="622"/>
      <point x="665" y="602" type="curve"/>
      <point x="784" y="602" type="line"/>
      <point x="784" y="694"/>
      <point x="721" y="750"/>
      <point x="621" y="750" type="curve" smooth="yes"/>
      <point x="515" y="750"/>
      <point x="455" y="690"/>
      <point x="455" y="594" type="curve" smooth="yes"/>
    </contour>
    <contour>
      <point x="827" y="0" type="line"/>
      <point x="987" y="0" type="line"/>
      <point x="987" y="547" type="line"/>
      <point x="827" y="547" type="line"/>
    </contour>
    <contour>
      <point x="20" y="422" type="line"/>
      <point x="722" y="422" type="line"/>
      <point x="722" y="538" type="line"/>
      <point x="20" y="538" type="line"/>
    </contour>
    <contour>
      <point x="769" y="430" type="line"/>
      <point x="987" y="430" type="line"/>
      <point x="987" y="547" type="line"/>
      <point x="769" y="547" type="line"/>
    </contour>
    <contour>
      <point x="900" y="605" type="curve" smooth="yes"/>
      <point x="959" y="605"/>
      <point x="986" y="639"/>
      <point x="986" y="687" type="curve" smooth="yes"/>
      <point x="986" y="734"/>
      <point x="959" y="768"/>
      <point x="900" y="768" type="curve" smooth="yes"/>
      <point x="841" y="768"/>
      <point x="814" y="734"/>
      <point x="814" y="687" type="curve" smooth="yes"/>
      <point x="814" y="639"/>
      <point x="841" y="605"/>
    </contour>
  </outline>
</glyph>
<glyph name="f_f_j" format="2">
  <advance width="1051"/>
  <outline>
    <contour>
      <point x="84" y="0" type="line"/>
      <point x="232" y="0" type="line"/>
      <point x="232" y="573" type="line" smooth="yes"/>
      <point x="232" y="609"/>
      <point x="253" y="630"/>
      <point x="289" y="630" type="curve" smooth="yes"/>
      <point x="346" y="630" type="line"/>
      <point x="346" y="750" type="line"/>
      <point x="296" y="750" type="line" smooth="yes"/>
      <point x="156" y="750"/>
      <point x="84" y="690"/>
      <point x="84" y="563" type="curve" smooth="yes"/>
    </contour>
    <contour>
      <point x="443" y="0" type="line"/>
      <point x="592" y="0" type="line"/>
      <point x="592" y="567" type="line" smooth="yes"/>
      <point x="592" y="603"/>
      <point x="612" y="624"/>
      <point x="649" y="624" type="curve" smooth="yes"/>
      <point x="709" y="624" type="line"/>
      <point x="709" y="744" type="line"/>
      <point x="656" y="744" type="line" smooth="yes"/>
      <point x="515" y="744"/>
      <point x="443" y="684"/>
      <point x="443" y="557" type="curve" smooth="yes"/>
    </contour>
    <contour>
      <point x="717" y="-203" type="line"/>
      <point x="745" y="-203" type="line" smooth="yes"/>
      <point x="910" y="-203"/>
      <point x="981" y="-145"/>
      <point x="981" y="12" type="curve" smooth="yes"/>
      <point x="981" y="547" type="line"/>
      <point x="827" y="547" type="line"/>
      <point x="827" y="7" type="line" smooth="yes"/>
      <point x="827" y="-41"/>
      <point x="800" y="-68"/>
      <point x="751" y="-68" type="curve" smooth="yes"/>
      <point x="717" y="-68" type="line"/>
    </contour>
    <contour>
      <point x="20" y="426" type="line"/>
      <point x="716" y="426" type="line"/>
      <point x="716" y="543" type="line"/>
      <point x="20" y="543" type="line"/>
    </contour>
    <contour>
      <point x="759" y="430" type="line"/>
      <point x="981" y="430" type="line"/>
      <point x="981" y="547" type="line"/>
      <point x="759" y="547" type="line"/>
    </contour>
    <contour>
      <point x="883" y="604" type="curve" smooth="yes"/>
      <point x="943" y="604"/>
      <point x="971" y="639"/>
      <point x="971" y="687" type="curve" smooth="yes"/>
      <point x="971" y="736"/>
      <point x="943" y="770"/>
      <point x="883" y="770" type="curve" smooth="yes"/>
      <point x="823" y="770"/>
      <point x="796" y="736"/>
      <point x="796" y="687" type="curve" smooth="yes"/>
      <point x="796" y="639"/>
      <point x="823" y="604"/>
    </contour>
  </outline>
</glyph>
<glyph name="f_f_j.salt" format="2">
  <advance width="1063"/>
  <outline>
    <contour>
      <point x="84" y="0" type="line"/>
      <point x="232" y="0" type="line"/>
      <point x="232" y="597" type="line" smooth="yes"/>
      <point x="232" y="616"/>
      <point x="241" y="631"/>
      <point x="262" y="631" type="curve" smooth="yes"/>
      <point x="282" y="631"/>
      <point x="292" y="616"/>
      <point x="292" y="597" type="curve"/>
      <point x="411" y="597" type="line"/>
      <point x="411" y="689"/>
      <point x="348" y="744"/>
      <point x="249" y="744" type="curve" smooth="yes"/>
      <point x="146" y="744"/>
      <point x="84" y="685"/>
      <point x="84" y="589" type="curve" smooth="yes"/>
    </contour>
    <contour>
      <point x="455" y="0" type="line"/>
      <point x="603" y="0" type="line"/>
      <point x="603" y="602" type="line" smooth="yes"/>
      <point x="603" y="621"/>
      <point x="613" y="637"/>
      <point x="633" y="637" type="curve" smooth="yes"/>
      <point x="654" y="637"/>
      <point x="664" y="621"/>
      <point x="664" y="602" type="curve"/>
      <point x="783" y="602" type="line"/>
      <point x="783" y="694"/>
      <point x="721" y="750"/>
      <point x="620" y="750" type="curve" smooth="yes"/>
      <point x="515" y="750"/>
      <point x="455" y="690"/>
      <point x="455" y="594" type="curve" smooth="yes"/>
    </contour>
    <contour>
      <point x="729" y="-203" type="line"/>
      <point x="757" y="-203" type="line" smooth="yes"/>
      <point x="922" y="-203"/>
      <point x="993" y="-145"/>
      <point x="993" y="12" type="curve" smooth="yes"/>
      <point x="993" y="547" type="line"/>
      <point x="838" y="547" type="line"/>
      <point x="838" y="7" type="line" smooth="yes"/>
      <point x="838" y="-41"/>
      <point x="812" y="-68"/>
      <point x="763" y="-68" type="curve" smooth="yes"/>
      <point x="729" y="-68" type="line"/>
    </contour>
    <contour>
      <point x="20" y="422" type="line"/>
      <point x="728" y="422" type="line"/>
      <point x="728" y="538" type="line"/>
      <point x="20" y="538" type="line"/>
    </contour>
    <contour>
      <point x="775" y="430" type="line"/>
      <point x="993" y="430" type="line"/>
      <point x="993" y="547" type="line"/>
      <point x="775" y="547" type="line"/>
    </contour>
    <contour>
      <point x="905" y="607" type="curve" smooth="yes"/>
      <point x="965" y="607"/>
      <point x="991" y="641"/>
      <point x="991" y="689" type="curve" smooth="yes"/>
      <point x="991" y="736"/>
      <point x="965" y="770"/>
      <point x="905" y="770" type="curve" smooth="yes"/>
      <point x="846" y="770"/>
      <point x="819" y="736"/>
      <point x="819" y="689" type="curve" smooth="yes"/>
      <point x="819" y="641"/>
      <point x="846" y="607"/>
    </contour>
  </outline>
</glyph>
<glyph name="f_f_l" format="2">
  <advance width="1043"/>
  <outline>
    <contour>
      <point x="84" y="0" type="line"/>
      <point x="232" y="0" type="line"/>
      <point x="232" y="569" type="line" smooth="yes"/>
      <point x="232" y="605"/>
      <point x="253" y="626"/>
      <point x="289" y="626" type="curve" smooth="yes"/>
      <point x="346" y="626" type="line"/>
      <point x="346" y="746" type="line"/>
      <point x="296" y="746" type="line" smooth="yes"/>
      <point x="156" y="746"/>
      <point x="84" y="685"/>
      <point x="84" y="559" type="curve" smooth="yes"/>
    </contour>
    <contour>
      <point x="443" y="0" type="line"/>
      <point x="592" y="0" type="line"/>
      <point x="592" y="554" type="line" smooth="yes"/>
      <point x="592" y="590"/>
      <point x="612" y="611"/>
      <point x="649" y="611" type="curve" smooth="yes"/>
      <point x="704" y="611" type="line"/>
      <point x="704" y="730" type="line"/>
      <point x="656" y="730" type="line" smooth="yes"/>
      <point x="515" y="730"/>
      <point x="443" y="669"/>
      <point x="443" y="543" type="curve" smooth="yes"/>
    </contour>
    <contour>
      <point x="809" y="0" type="line"/>
      <point x="969" y="0" type="line"/>
      <point x="969" y="730" type="line"/>
      <point x="809" y="730" type="line"/>
    </contour>
    <contour>
      <point x="20" y="420" type="line"/>
      <point x="708" y="420" type="line"/>
      <point x="708" y="537" type="line"/>
      <point x="20" y="537" type="line"/>
    </contour>
    <contour>
      <point x="749" y="612" type="line"/>
      <point x="969" y="612" type="line"/>
      <point x="969" y="730" type="line"/>
      <point x="749" y="730" type="line"/>
    </contour>
  </outline>
</glyph>
<glyph name="fi.salt" format="2">
  <advance width="690"/>
  <outline>
    <contour>
      <point x="84" y="0" type="line"/>
      <point x="232" y="0" type="line"/>
      <point x="232" y="601" type="line" smooth="yes"/>
      <point x="232" y="621"/>
      <point x="242" y="637"/>
      <point x="263" y="637" type="curve" smooth="yes"/>
      <point x="283" y="637"/>
      <point x="294" y="621"/>
      <point x="294" y="601" type="curve"/>
      <point x="413" y="601" type="line"/>
      <point x="413" y="693"/>
      <point x="350" y="750"/>
      <point x="249" y="750" type="curve" smooth="yes"/>
      <point x="144" y="750"/>
      <point x="84" y="690"/>
      <point x="84" y="594" type="curve" smooth="yes"/>
    </contour>
    <contour>
      <point x="20" y="422" type="line"/>
      <point x="351" y="422" type="line"/>
      <point x="351" y="538" type="line"/>
      <point x="20" y="538" type="line"/>
    </contour>
    <contour>
      <point x="456" y="0" type="line"/>
      <point x="616" y="0" type="line"/>
      <point x="616" y="547" type="line"/>
      <point x="456" y="547" type="line"/>
    </contour>
    <contour>
      <point x="398" y="430" type="line"/>
      <point x="616" y="430" type="line"/>
      <point x="616" y="547" type="line"/>
      <point x="398" y="547" type="line"/>
    </contour>
    <contour>
      <point x="529" y="605" type="curve" smooth="yes"/>
      <point x="588" y="605"/>
      <point x="615" y="639"/>
      <point x="615" y="687" type="curve" smooth="yes"/>
      <point x="615" y="734"/>
      <point x="588" y="768"/>
      <point x="529" y="768" type="curve" smooth="yes"/>
      <point x="469" y="768"/>
      <point x="443" y="734"/>
      <point x="443" y="687" type="curve" smooth="yes"/>
      <point x="443" y="639"/>
      <point x="469" y="605"/>
    </contour>
  </outline>
</glyph>
<glyph name="five.tnum" format="2">
  <advance width="669"/>
  <outline>
    <contour>
      <point x="341" y="-19" type="curve" smooth="yes"/>
      <point x="524" y="-19"/>
      <point x="628" y="102"/>
      <point x="628" y="236" type="curve" smooth="yes"/>
      <point x="628" y="249" type="line" smooth="yes"/>
      <point x="628" y="383"/>
      <point x="530" y="489"/>
      <point x="371" y="489" type="curve" smooth="yes"/>
      <point x="276" y="489"/>
      <point x="226" y="453"/>
      <point x="187" y="405" type="curve"/>
      <point x="221" y="395" type="line"/>
      <point x="243" y="632" type="line"/>
      <point x="185" y="590" type="line"/>
      <point x="566" y="590" type="line"/>
      <point x="566" y="730" type="line"/>
      <point x="115" y="730" type="line"/>
      <point x="78" y="318" type="line"/>
      <point x="232" y="318" type="line"/>
      <point x="251" y="349"/>
      <point x="295" y="371"/>
      <point x="344" y="371" type="curve" smooth="yes"/>
      <point x="422" y="371"/>
      <point x="471" y="316"/>
      <point x="471" y="243" type="curve" smooth="yes"/>
      <point x="471" y="170"/>
      <point x="422" y="117"/>
      <point x="343" y="117" type="curve" smooth="yes"/>
      <point x="268" y="117"/>
      <point x="215" y="161"/>
      <point x="215" y="230" type="curve"/>
      <point x="57" y="230" type="line"/>
      <point x="57" y="93"/>
      <point x="166" y="-19"/>
    </contour>
  </outline>
</glyph>
<glyph name="fl.salt" format="2">
  <advance width="715"/>
  <outline>
    <contour>
      <point x="84" y="0" type="line"/>
      <point x="232" y="0" type="line"/>
      <point x="232" y="601" type="line" smooth="yes"/>
      <point x="232" y="621"/>
      <point x="242" y="637"/>
      <point x="262" y="637" type="curve" smooth="yes"/>
      <point x="282" y="637"/>
      <point x="292" y="621"/>
      <point x="292" y="601" type="curve"/>
      <point x="411" y="601" type="line"/>
      <point x="411" y="693"/>
      <point x="349" y="750"/>
      <point x="249" y="750" type="curve" smooth="yes"/>
      <point x="144" y="750"/>
      <point x="84" y="689"/>
      <point x="84" y="594" type="curve" smooth="yes"/>
    </contour>
    <contour>
      <point x="20" y="419" type="line"/>
      <point x="368" y="419" type="line"/>
      <point x="368" y="536" type="line"/>
      <point x="20" y="536" type="line"/>
    </contour>
    <contour>
      <point x="627" y="-6" type="curve" smooth="yes"/>
      <point x="689" y="-6" type="line"/>
      <point x="689" y="131" type="line"/>
      <point x="639" y="131" type="line" smooth="yes"/>
      <point x="616" y="131"/>
      <point x="604" y="143"/>
      <point x="604" y="166" type="curve" smooth="yes"/>
      <point x="604" y="730" type="line"/>
      <point x="444" y="730" type="line"/>
      <point x="444" y="167" type="line" smooth="yes"/>
      <point x="444" y="45"/>
      <point x="491" y="-6"/>
    </contour>
  </outline>
</glyph>
<glyph name="hungarumlautcomb.case" format="2">
  <anchor x="158" y="730" name="_top"/>
  <anchor x="243" y="964" name="top"/>
  <outline>
    <contour>
      <point x="180" y="785" type="line"/>
      <point x="300" y="785" type="line"/>
      <point x="403" y="964" type="line"/>
      <point x="270" y="964" type="line"/>
    </contour>
    <contour>
      <point x="0" y="785" type="line"/>
      <point x="120" y="785" type="line"/>
      <point x="222" y="964" type="line"/>
      <point x="89" y="964" type="line"/>
    </contour>
  </outline>
</glyph>
<glyph name="l.salt" format="2">
  <advance width="328"/>
  <anchor x="177" y="0" name="bottom"/>
  <anchor x="175" y="480" name="center"/>
  <anchor x="138" y="730" name="top"/>
  <anchor x="206" y="534" name="topright"/>
  <outline>
    <contour>
      <point x="240" y="-6" type="curve" smooth="yes"/>
      <point x="302" y="-6" type="line"/>
      <point x="302" y="131" type="line"/>
      <point x="253" y="131" type="line" smooth="yes"/>
      <point x="230" y="131"/>
      <point x="218" y="143"/>
      <point x="218" y="166" type="curve" smooth="yes"/>
      <point x="218" y="730" type="line"/>
      <point x="58" y="730" type="line"/>
      <point x="58" y="167" type="line" smooth="yes"/>
      <point x="58" y="45"/>
      <point x="105" y="-6"/>
    </contour>
  </outline>
</glyph>
<glyph name="lslash.salt" format="2">
  <advance width="328"/>
  <anchor x="177" y="0" name="bottom"/>
  <anchor x="175" y="480" name="center"/>
  <anchor x="138" y="730" name="top"/>
  <anchor x="206" y="534" name="topright"/>
  <outline>
    <contour>
      <point x="8" y="194" type="line"/>
      <point x="126" y="259" type="line"/>
      <point x="126" y="375" type="line"/>
      <point x="8" y="310" type="line"/>
    </contour>
    <contour>
      <point x="180" y="287" type="line"/>
      <point x="296" y="350" type="line"/>
      <point x="296" y="467" type="line"/>
      <point x="180" y="403" type="line"/>
    </contour>
    <component base="l.salt"/>
  </outline>
</glyph>
<glyph name="macroncomb.case" format="2">
  <anchor x="195" y="730" name="_top"/>
  <anchor x="195" y="962" name="top"/>
  <outline>
    <contour>
      <point x="0" y="810" type="line"/>
      <point x="390" y="810" type="line"/>
      <point x="390" y="922" type="line"/>
      <point x="0" y="922" type="line"/>
    </contour>
  </outline>
</glyph>
<glyph name="multiply.tnum" format="2">
  <advance width="669"/>
  <outline>
    <contour>
      <point x="161" y="83" type="line"/>
      <point x="73" y="172" type="line"/>
      <point x="508" y="606" type="line"/>
      <point x="597" y="517" type="line"/>
    </contour>
    <contour>
      <point x="504" y="83" type="line"/>
      <point x="73" y="513" type="line"/>
      <point x="165" y="606" type="line"/>
      <point x="597" y="176" type="line"/>
    </contour>
  </outline>
</glyph>
<glyph name="parenleft.case" format="2">
  <advance width="392"/>
  <outline>
    <contour>
      <point x="201" y="-118" type="curve"/>
      <point x="382" y="-118" type="line"/>
      <point x="261" y="20"/>
      <point x="210" y="164"/>
      <point x="210" y="349" type="curve" smooth="yes"/>
      <point x="210" y="535"/>
      <point x="284" y="674"/>
      <point x="382" y="806" type="curve"/>
      <point x="205" y="806" type="line"/>
      <point x="113" y="690"/>
      <point x="52" y="559"/>
      <point x="52" y="349" type="curve" smooth="yes"/>
      <point x="52" y="139"/>
      <point x="108" y="3"/>
    </contour>
  </outline>
</glyph>
<glyph name="plus.tnum" format="2">
  <advance width="669"/>
  <outline>
    <contour>
      <point x="264" y="76" type="line"/>
      <point x="405" y="76" type="line"/>
      <point x="405" y="612" type="line"/>
      <point x="264" y="612" type="line"/>
    </contour>
    <contour>
      <point x="74" y="279" type="line"/>
      <point x="595" y="279" type="line"/>
      <point x="595" y="409" type="line"/>
      <point x="74" y="409" type="line"/>
    </contour>
  </outline>
</glyph>
<glyph name="r.salt" format="2">
  <advance width="440"/>
  <note>
r / design an alternative version with a round hook. Look at lettera (based on Olivetti Candia)
</note>
  <anchor x="140" y="0" name="bottom"/>
  <anchor x="259" y="547" name="top"/>
  <outline>
    <contour>
      <point x="73" y="0" type="line"/>
      <point x="233" y="0" type="line"/>
      <point x="233" y="328" type="line" smooth="yes"/>
      <point x="233" y="386"/>
      <point x="263" y="417"/>
      <point x="321" y="417" type="curve" smooth="yes"/>
      <point x="433" y="417" type="line"/>
      <point x="433" y="555" type="line"/>
      <point x="352" y="555" type="line" smooth="yes"/>
      <point x="259" y="555"/>
      <point x="192" y="500"/>
      <point x="192" y="326" type="curve"/>
      <point x="194" y="326" type="line"/>
      <point x="194" y="547" type="line"/>
      <point x="73" y="547" type="line"/>
    </contour>
  </outline>
</glyph>
<glyph name="riel-khmer.tnum" format="2">
  <advance width="669"/>
  <outline>
    <contour>
      <point x="329" y="-7" type="curve" smooth="yes"/>
      <point x="461" y="-7" type="line"/>
      <point x="461" y="367" type="line"/>
      <point x="335" y="367" type="line"/>
      <point x="333" y="52" type="line"/>
      <point x="369" y="91" type="line"/>
      <point x="326" y="91" type="line" smooth="yes"/>
      <point x="272" y="91"/>
      <point x="239" y="110"/>
      <point x="239" y="148" type="curve" smooth="yes"/>
      <point x="239" y="186"/>
      <point x="273" y="203"/>
      <point x="341" y="203" type="curve"/>
      <point x="341" y="300" type="line"/>
      <point x="192" y="300"/>
      <point x="111" y="244"/>
      <point x="111" y="146" type="curve" smooth="yes"/>
      <point x="111" y="47"/>
      <point x="192" y="-7"/>
    </contour>
    <contour>
      <point x="183" y="339" type="line"/>
      <point x="575" y="339" type="line"/>
      <point x="575" y="435" type="line"/>
      <point x="183" y="435" type="line"/>
    </contour>
    <contour>
      <point x="335" y="406" type="line"/>
      <point x="461" y="406" type="line"/>
      <point x="461" y="439" type="line" smooth="yes"/>
      <point x="461" y="497"/>
      <point x="439" y="527"/>
      <point x="398" y="550" type="curve" smooth="yes"/>
      <point x="371" y="565"/>
      <point x="319" y="592"/>
      <point x="305" y="600" type="curve" smooth="yes"/>
      <point x="294" y="606"/>
      <point x="293" y="614"/>
      <point x="297" y="624" type="curve" smooth="yes"/>
      <point x="301" y="633"/>
      <point x="307" y="637"/>
      <point x="329" y="637" type="curve" smooth="yes"/>
      <point x="391" y="637"/>
      <point x="447" y="632"/>
      <point x="505" y="623" type="curve"/>
      <point x="505" y="734" type="line"/>
      <point x="448" y="742"/>
      <point x="393" y="747"/>
      <point x="336" y="747" type="curve" smooth="yes"/>
      <point x="249" y="747"/>
      <point x="207" y="732"/>
      <point x="182" y="672" type="curve" smooth="yes"/>
      <point x="157" y="610"/>
      <point x="169" y="550"/>
      <point x="226" y="517" type="curve" smooth="yes"/>
      <point x="251" y="503"/>
      <point x="290" y="483"/>
      <point x="317" y="468" type="curve" smooth="yes"/>
      <point x="331" y="460"/>
      <point x="335" y="451"/>
      <point x="335" y="439" type="curve" smooth="yes"/>
    </contour>
  </outline>
</glyph>
<glyph name="seven.salt" format="2">
  <advance width="582"/>
  <outline>
    <contour>
      <point x="171" y="0" type="line"/>
      <point x="333" y="0" type="line"/>
      <point x="333" y="140" type="line" smooth="yes"/>
      <point x="333" y="317"/>
      <point x="389" y="431"/>
      <point x="555" y="524" type="curve"/>
      <point x="555" y="730" type="line"/>
      <point x="17" y="730" type="line"/>
      <point x="17" y="590" type="line"/>
      <point x="394" y="590" type="line"/>
      <point x="401" y="569" type="line"/>
      <point x="252" y="484"/>
      <point x="171" y="339"/>
      <point x="171" y="140" type="curve" smooth="yes"/>
    </contour>
  </outline>
</glyph>
<glyph name="sterling.tnum" format="2">
  <advance width="669"/>
  <outline>
    <contour>
      <point x="132" y="0" type="line"/>
      <point x="278" y="0" type="line"/>
      <point x="278" y="479" type="line" smooth="yes"/>
      <point x="278" y="566"/>
      <point x="312" y="611"/>
      <point x="408" y="611" type="curve" smooth="yes"/>
      <point x="447" y="611"/>
      <point x="535" y="606"/>
      <point x="574" y="601" type="curve"/>
      <point x="574" y="731" type="line"/>
      <point x="536" y="735"/>
      <point x="452" y="741"/>
      <point x="409" y="741" type="curve" smooth="yes"/>
      <point x="238" y="741"/>
      <point x="132" y="650"/>
      <point x="132" y="486" type="curve" smooth="yes"/>
    </contour>
    <contour>
      <point x="64" y="0" type="line"/>
      <point x="531" y="0" type="line"/>
      <point x="531" y="124" type="line"/>
      <point x="64" y="124" type="line"/>
    </contour>
    <contour>
      <point x="70" y="313" type="line"/>
      <point x="512" y="313" type="line"/>
      <point x="512" y="419" type="line"/>
      <point x="70" y="419" type="line"/>
    </contour>
    <contour>
      <point x="495" y="0" type="line"/>
      <point x="620" y="0" type="line"/>
      <point x="620" y="212" type="line"/>
      <point x="495" y="212" type="line"/>
    </contour>
  </outline>
</glyph>
<glyph name="t.salt" format="2">
  <advance width="464"/>
  <anchor x="260" y="0" name="bottom"/>
  <anchor x="209" y="291" name="center"/>
  <anchor x="181" y="661" name="top"/>
  <anchor x="237" y="576" name="topright"/>
  <outline>
    <contour>
      <point x="274" y="-14" type="curve" smooth="yes"/>
      <point x="393" y="-14"/>
      <point x="448" y="57"/>
      <point x="448" y="170" type="curve"/>
      <point x="333" y="170" type="line"/>
      <point x="333" y="133"/>
      <point x="315" y="113"/>
      <point x="285" y="113" type="curve" smooth="yes"/>
      <point x="255" y="113"/>
      <point x="236" y="133"/>
      <point x="236" y="170" type="curve" smooth="yes"/>
      <point x="236" y="494" type="line"/>
      <point x="87" y="494" type="line"/>
      <point x="87" y="174" type="line" smooth="yes"/>
      <point x="87" y="53"/>
      <point x="158" y="-14"/>
    </contour>
    <contour>
      <point x="6" y="431" type="line"/>
      <point x="431" y="431" type="line"/>
      <point x="431" y="547" type="line"/>
      <point x="6" y="547" type="line"/>
    </contour>
    <contour>
      <point x="87" y="502" type="line"/>
      <point x="236" y="502" type="line"/>
      <point x="236" y="702" type="line"/>
      <point x="87" y="702" type="line"/>
    </contour>
  </outline>
</glyph>
<glyph name="three.tnum" format="2">
  <advance width="669"/>
  <outline>
    <contour>
      <point x="329" y="-19" type="curve" smooth="yes"/>
      <point x="500" y="-19"/>
      <point x="608" y="81"/>
      <point x="608" y="214" type="curve" smooth="yes"/>
      <point x="608" y="227" type="line" smooth="yes"/>
      <point x="608" y="362"/>
      <point x="500" y="450"/>
      <point x="328" y="450" type="curve" smooth="yes"/>
      <point x="300" y="450"/>
      <point x="261" y="445"/>
      <point x="233" y="435" type="curve"/>
      <point x="321" y="414" type="line"/>
      <point x="578" y="578" type="line"/>
      <point x="578" y="730" type="line"/>
      <point x="80" y="730" type="line"/>
      <point x="80" y="590" type="line"/>
      <point x="378" y="590" type="line"/>
      <point x="387" y="573" type="line"/>
      <point x="162" y="425" type="line"/>
      <point x="237" y="302" type="line"/>
      <point x="259" y="321"/>
      <point x="293" y="335"/>
      <point x="329" y="335" type="curve" smooth="yes"/>
      <point x="403" y="335"/>
      <point x="450" y="288"/>
      <point x="450" y="225" type="curve" smooth="yes"/>
      <point x="450" y="161"/>
      <point x="403" y="117"/>
      <point x="329" y="117" type="curve" smooth="yes"/>
      <point x="254" y="117"/>
      <point x="208" y="158"/>
      <point x="208" y="220" type="curve"/>
      <point x="50" y="220" type="line"/>
      <point x="50" y="83"/>
      <point x="156" y="-19"/>
    </contour>
  </outline>
</glyph>
<glyph name="tildecomb.case" format="2">
  <anchor x="202" y="730" name="_top"/>
  <anchor x="202" y="962" name="top"/>
  <outline>
    <contour>
      <point x="291" y="786" type="curve" smooth="yes"/>
      <point x="347" y="786"/>
      <point x="386" y="808"/>
      <point x="409" y="836" type="curve"/>
      <point x="385" y="944" type="line"/>
      <point x="366" y="922"/>
      <point x="334" y="904"/>
      <point x="291" y="904" type="curve" smooth="yes"/>
      <point x="224" y="904"/>
      <point x="202" y="957"/>
      <point x="117" y="957" type="curve" smooth="yes"/>
      <point x="60" y="957"/>
      <point x="23" y="935"/>
      <point x="0" y="907" type="curve"/>
      <point x="24" y="799" type="line"/>
      <point x="43" y="821"/>
      <point x="73" y="839"/>
      <point x="117" y="839" type="curve" smooth="yes"/>
      <point x="184" y="839"/>
      <point x="206" y="786"/>
    </contour>
  </outline>
</glyph>
<glyph name="two.tnum" format="2">
  <advance width="669"/>
  <outline>
    <contour>
      <point x="76" y="1" type="line"/>
      <point x="604" y="1" type="line"/>
      <point x="604" y="141" type="line"/>
      <point x="197" y="141" type="line"/>
      <point x="234" y="107" type="line"/>
      <point x="234" y="159" type="line" smooth="yes"/>
      <point x="234" y="189"/>
      <point x="246" y="205"/>
      <point x="288" y="222" type="curve" smooth="yes"/>
      <point x="410" y="272" type="line" smooth="yes"/>
      <point x="537" y="323"/>
      <point x="603" y="396"/>
      <point x="603" y="509" type="curve" smooth="yes"/>
      <point x="603" y="522" type="line" smooth="yes"/>
      <point x="603" y="648"/>
      <point x="509" y="751"/>
      <point x="335" y="751" type="curve" smooth="yes"/>
      <point x="158" y="751"/>
      <point x="66" y="646"/>
      <point x="66" y="508" type="curve"/>
      <point x="224" y="508" type="line"/>
      <point x="224" y="574"/>
      <point x="264" y="615"/>
      <point x="335" y="615" type="curve" smooth="yes"/>
      <point x="405" y="615"/>
      <point x="445" y="574"/>
      <point x="445" y="516" type="curve" smooth="yes"/>
      <point x="445" y="458"/>
      <point x="419" y="422"/>
      <point x="359" y="397" type="curve" smooth="yes"/>
      <point x="237" y="347" type="line" smooth="yes"/>
      <point x="120" y="300"/>
      <point x="76" y="244"/>
      <point x="76" y="151" type="curve" smooth="yes"/>
    </contour>
  </outline>
</glyph>
<glyph name="zero.tnum" format="2">
  <advance width="669"/>
  <outline>
    <contour>
      <point x="335" y="-21" type="curve" smooth="yes"/>
      <point x="534" y="-21"/>
      <point x="621" y="126"/>
      <point x="621" y="341" type="curve" smooth="yes"/>
      <point x="621" y="387" type="line" smooth="yes"/>
      <point x="621" y="611"/>
      <point x="524" y="751"/>
      <point x="335" y="751" type="curve" smooth="yes"/>
      <point x="145" y="751"/>
      <point x="49" y="611"/>
      <point x="49" y="387" type="curve" smooth="yes"/>
      <point x="49" y="341" type="line" smooth="yes"/>
      <point x="49" y="126"/>
      <point x="135" y="-21"/>
    </contour>
    <contour>
      <point x="335" y="129" type="curve" smooth="yes"/>
      <point x="245" y="129"/>
      <point x="209" y="191"/>
      <point x="209" y="365" type="curve" smooth="yes"/>
      <point x="209" y="543"/>
      <point x="247" y="601"/>
      <point x="335" y="601" type="curve" smooth="yes"/>
      <point x="423" y="601"/>
      <point x="460" y="543"/>
      <point x="460" y="363" type="curve" smooth="yes"/>
      <point x="460" y="191"/>
      <point x="425" y="129"/>
    </contour>
  </outline>
</glyph>
